<?xml version="1.0" standalone="no"?>
<!DOCTYPE svg PUBLIC "-//W3C//DTD SVG 20010904//EN"
 "http://www.w3.org/TR/2001/REC-SVG-20010904/DTD/svg10.dtd">
<svg version="1.0" xmlns="http://www.w3.org/2000/svg"
 width="1280.000000pt" height="720.000000pt" viewBox="0 0 1280.000000 720.000000"
 preserveAspectRatio="xMidYMid meet">

<g transform="translate(0.000000,720.000000) scale(0.100000,-0.100000)"
fill="#000000" stroke="none">
<path d="M2920 4770 c0 -11 -7 -20 -15 -20 -8 0 -15 -7 -15 -15 0 -8 -9 -15
-20 -15 -13 0 -20 -7 -20 -20 0 -11 -7 -20 -15 -20 -13 0 -15 -23 -15 -145 0
-122 2 -145 15 -145 8 0 15 -9 15 -20 0 -11 -7 -20 -15 -20 -13 0 -15 -21 -15
-130 0 -109 2 -130 15 -130 8 0 15 -9 15 -20 0 -11 -7 -20 -15 -20 -13 0 -15
-25 -15 -165 l0 -165 100 0 c93 0 100 -1 100 -20 0 -19 -7 -20 -100 -20 l-100
0 0 -85 c0 -69 3 -85 15 -85 8 0 15 -7 15 -15 0 -8 -7 -15 -15 -15 -12 0 -15
-19 -15 -114 l0 -115 32 -3 c22 -2 34 -9 36 -20 3 -15 -4 -18 -32 -18 l-36 0
0 -115 c0 -96 3 -115 15 -115 8 0 15 -9 15 -20 0 -11 -7 -20 -15 -20 -12 0
-15 -16 -15 -80 l0 -80 36 0 c28 0 35 -3 32 -17 -2 -12 -14 -19 -36 -21 -31
-3 -32 -5 -32 -48 0 -32 4 -44 15 -44 8 0 15 -9 15 -20 0 -27 26 -26 33 1 8
31 31 18 35 -19 3 -29 6 -32 38 -32 27 0 34 -4 34 -20 0 -16 7 -20 30 -20 28
0 30 3 30 35 0 28 4 35 20 35 16 0 20 -7 20 -35 l0 -35 115 0 115 0 0 50 c0
43 3 50 20 50 17 0 20 -7 20 -50 l0 -50 315 0 315 0 0 35 c0 28 4 35 20 35 16
0 20 -7 20 -35 l0 -35 250 0 c243 0 250 1 250 20 0 13 7 20 20 20 13 0 20 -7
20 -20 0 -18 7 -20 80 -20 64 0 80 3 80 15 0 10 11 15 35 15 28 0 35 4 35 20
0 11 7 20 15 20 11 0 15 12 15 50 0 43 3 50 20 50 18 0 20 -7 20 -70 l0 -70
35 0 c24 0 35 -5 35 -15 0 -8 5 -15 10 -15 6 0 10 15 10 34 l0 34 118 4 c150
4 162 2 162 -28 0 -19 5 -24 25 -24 l25 0 0 -155 0 -155 -25 -6 c-35 -9 -34
-44 0 -44 l26 0 -3 -132 -3 -133 -57 -3 -58 -3 0 131 0 130 -45 0 -45 0 0
-130 c0 -123 -1 -130 -20 -130 -17 0 -20 -7 -20 -45 0 -41 2 -45 25 -45 20 0
25 -5 25 -25 0 -25 1 -26 63 -23 l62 3 3 43 c3 45 16 56 25 21 4 -16 11 -20
26 -16 17 4 21 0 21 -19 0 -24 2 -25 68 -22 l67 3 3 38 c3 37 4 37 48 37 32 0
44 -4 44 -15 0 -9 9 -15 25 -15 20 0 25 -5 25 -26 l0 -26 113 7 c61 4 115 9
120 12 4 2 7 13 7 24 0 14 7 19 25 19 18 0 25 5 25 20 0 11 4 20 9 20 5 0 16
3 25 6 12 4 16 0 16 -15 0 -16 6 -21 25 -21 20 0 25 -5 25 -26 l0 -26 163 7
c102 5 165 12 169 19 4 6 8 28 8 49 0 30 4 37 20 37 15 0 20 -7 20 -25 0 -20
5 -25 25 -25 20 0 25 -5 25 -26 l0 -26 163 7 c89 4 163 8 164 9 1 1 5 28 9 59
l7 57 -29 1 c-16 0 -23 3 -16 6 9 4 12 83 12 349 l0 344 140 0 140 0 0 -25 c0
-20 5 -25 25 -25 l25 0 0 -155 0 -155 -25 -6 c-18 -4 -25 -13 -25 -30 0 -23
-2 -24 -80 -24 l-80 0 0 -130 c0 -123 -1 -130 -20 -130 -17 0 -20 -7 -20 -45
0 -41 2 -45 25 -45 20 0 25 -5 25 -25 0 -25 1 -26 63 -23 l62 3 3 86 c3 84 4
87 28 92 13 2 54 1 89 -2 l65 -7 0 333 0 333 60 0 60 0 0 -287 0 -286 104 6
104 7 4 -40 c7 -78 4 -80 -132 -80 l-120 0 0 -45 c0 -41 2 -45 25 -45 20 0 25
-5 25 -26 l0 -26 163 7 c102 5 165 12 169 19 4 6 8 28 8 49 0 30 4 37 20 37
15 0 20 -7 20 -25 0 -20 5 -25 25 -25 20 0 25 -5 25 -25 0 -25 1 -26 63 -23
l62 3 3 52 c3 56 18 72 24 26 2 -22 8 -28 28 -28 18 0 26 -6 28 -22 3 -21 9
-23 62 -23 l59 0 7 79 c6 78 7 79 38 88 l31 9 3 137 3 137 -26 0 c-23 0 -25 3
-25 50 0 47 -2 50 -25 50 l-25 0 0 135 0 135 60 0 60 0 0 -130 0 -130 45 0 45
0 0 130 0 130 38 0 c20 0 47 3 60 6 l22 6 0 -136 0 -136 -25 0 c-24 0 -25 -3
-25 -55 0 -52 -1 -55 -25 -55 l-25 0 0 -155 0 -155 -25 0 c-23 0 -25 -4 -25
-45 0 -41 2 -45 25 -45 18 0 25 -5 25 -20 0 -18 7 -20 65 -20 l65 0 0 155 0
155 25 0 c23 0 25 3 25 50 0 47 2 50 25 50 l25 0 0 120 0 120 30 0 c20 0 30 5
30 15 0 10 10 15 30 15 30 0 30 0 30 56 0 47 3 55 18 52 13 -2 18 -15 20 -51
l3 -47 50 0 c42 0 49 -3 49 -20 0 -19 7 -20 200 -20 l200 0 0 70 c0 63 2 70
20 70 18 0 20 -7 20 -70 l0 -70 95 0 c88 0 95 1 95 20 0 13 7 20 20 20 13 0
20 -7 20 -20 0 -19 7 -20 130 -20 l130 0 0 50 c0 43 3 50 20 50 17 0 20 -7 20
-50 l0 -50 100 0 c85 0 100 2 100 16 0 9 9 18 20 21 11 3 20 12 20 19 0 9 12
14 35 14 28 0 35 -4 35 -20 0 -11 -7 -20 -15 -20 -8 0 -15 -7 -15 -15 0 -12
17 -15 95 -15 l95 0 0 70 c0 63 2 70 20 70 17 0 20 -7 20 -50 0 -49 0 -50 31
-50 22 0 32 -5 36 -20 4 -14 14 -20 34 -20 22 0 29 5 29 20 0 11 7 20 15 20 8
0 15 7 15 15 0 8 6 15 14 15 7 0 16 9 19 20 3 11 12 20 21 20 13 0 16 13 16
75 l0 75 -50 0 c-43 0 -50 3 -50 20 0 17 7 20 50 20 l50 0 0 100 0 100 -65 0
c-58 0 -65 2 -65 20 0 14 -7 20 -21 20 -36 0 -19 35 19 38 27 3 35 -1 39 -17
4 -17 13 -21 49 -21 l44 0 0 101 0 101 -35 -4 c-31 -4 -35 -1 -35 19 0 20 5
23 35 23 l35 0 0 80 c0 73 -2 80 -20 80 -11 0 -20 7 -20 15 0 8 9 15 20 15 19
0 20 7 20 135 0 128 -1 135 -20 135 -13 0 -20 7 -20 20 0 13 7 20 20 20 19 0
20 7 20 150 0 127 -2 150 -15 150 -8 0 -15 -9 -15 -20 0 -13 -7 -20 -20 -20
-17 0 -20 7 -20 40 0 29 4 40 15 40 8 0 15 7 15 15 0 8 9 15 20 15 19 0 20 7
20 95 l0 95 -51 0 c-47 0 -50 2 -47 23 3 19 10 22 51 25 l47 3 0 60 c0 52 -2
59 -20 59 -13 0 -20 7 -20 20 0 13 7 20 20 20 17 0 20 7 20 45 0 33 -4 45 -15
45 -8 0 -15 -7 -15 -15 0 -8 -9 -15 -20 -15 -14 0 -20 -7 -20 -21 0 -15 -4
-19 -16 -15 -9 3 -22 6 -30 6 -8 0 -14 9 -14 20 0 11 7 20 15 20 8 0 15 7 15
15 0 8 7 15 15 15 8 0 15 7 15 15 0 8 -7 15 -15 15 -10 0 -15 11 -15 35 l0 35
-150 0 c-143 0 -150 -1 -150 -20 0 -11 -7 -20 -15 -20 -8 0 -15 9 -15 20 0 19
-7 20 -135 20 l-134 0 -3 -67 c-2 -55 -6 -68 -20 -71 -15 -3 -18 4 -18 47 0
44 -3 51 -20 51 -13 0 -20 7 -20 20 0 19 -7 20 -210 20 -203 0 -210 -1 -210
-20 0 -17 -7 -20 -40 -20 -33 0 -40 3 -40 20 0 19 -7 20 -165 20 -158 0 -165
-1 -165 -20 0 -13 -7 -20 -20 -20 -13 0 -20 7 -20 20 0 18 -7 20 -80 20 -64 0
-80 -3 -80 -15 0 -8 7 -15 15 -15 12 0 15 -13 15 -55 0 -48 -2 -55 -20 -55
-16 0 -20 7 -20 35 0 24 -5 35 -15 35 -8 0 -15 7 -15 15 0 8 -7 15 -15 15 -8
0 -15 9 -15 20 0 20 -7 20 -285 20 l-285 0 0 -35 c0 -28 -4 -35 -20 -35 -16 0
-20 7 -20 35 l0 35 -180 0 -180 0 0 -35 c0 -28 -4 -35 -20 -35 -16 0 -20 7
-20 35 l0 35 -130 0 -130 0 0 -85 c0 -78 -2 -85 -20 -85 -18 0 -20 7 -20 85
l0 85 -165 0 c-158 0 -165 -1 -165 -20 0 -13 -7 -20 -20 -20 -13 0 -20 7 -20
20 0 19 -7 20 -150 20 l-150 0 0 -29 c0 -20 6 -30 20 -34 16 -4 20 -14 20 -45
0 -60 -11 -102 -26 -102 -8 0 -14 -4 -14 -10 0 -5 -9 -10 -20 -10 -16 0 -20 7
-20 30 0 23 4 30 20 30 16 0 20 7 20 35 0 28 -4 35 -20 35 -16 0 -20 7 -20 30
0 20 -5 30 -15 30 -8 0 -15 9 -15 20 0 19 -7 20 -150 20 -143 0 -150 -1 -150
-20 0 -13 -7 -20 -20 -20 -13 0 -20 7 -20 20 0 19 -7 20 -165 20 l-165 0 0
-35 c0 -28 -4 -35 -20 -35 -11 0 -20 7 -20 15 0 8 -7 15 -15 15 -8 0 -15 9
-15 20 0 19 -7 20 -265 20 l-265 0 0 -65 c0 -51 3 -65 15 -65 11 0 15 -11 15
-40 0 -29 -4 -40 -15 -40 -8 0 -15 9 -15 20 0 13 -7 20 -20 20 -18 0 -20 7
-20 65 0 51 -3 65 -15 65 -8 0 -15 9 -15 20 0 20 -7 20 -385 20 -378 0 -385 0
-385 -20 0 -13 -7 -20 -20 -20 -13 0 -20 7 -20 20 0 19 -7 20 -165 20 -158 0
-165 -1 -165 -20 0 -11 -7 -20 -15 -20 -8 0 -15 -7 -15 -15 0 -8 -9 -15 -20
-15 -16 0 -20 -7 -20 -35 0 -28 -4 -35 -20 -35 -13 0 -20 7 -20 20 0 11 -7 20
-15 20 -10 0 -15 10 -15 30 0 27 -3 30 -30 30 -23 0 -30 4 -30 20 0 19 -7 20
-200 20 l-200 0 0 -35 c0 -28 -4 -35 -20 -35 -16 0 -20 7 -20 35 l0 35 -235 0
c-228 0 -235 -1 -235 -20z m6720 -180 l0 -30 65 0 65 0 0 30 c0 28 3 30 35 30
l35 0 0 -65 0 -65 -35 0 c-33 0 -35 -2 -35 -35 l0 -35 -65 0 -65 0 0 35 c0 33
-2 35 -35 35 l-35 0 0 65 0 65 35 0 c32 0 35 -2 35 -30z m-6582 -17 c2 -8 -5
-13 -17 -13 -12 0 -21 6 -21 16 0 18 31 15 38 -3z m7182 2 c0 -8 -7 -15 -15
-15 -8 0 -15 7 -15 15 0 8 7 15 15 15 8 0 15 -7 15 -15z m-6920 -120 c0 -33 2
-35 35 -35 l35 0 0 -370 0 -371 133 3 132 3 3 368 2 367 30 0 c28 0 30 3 30
35 l0 35 135 0 135 0 0 -35 c0 -24 -5 -35 -15 -35 -8 0 -15 -6 -15 -14 0 -7
-9 -16 -20 -19 -20 -5 -20 -14 -20 -726 l0 -721 -30 0 -30 0 0 -95 0 -95 -32
0 c-18 -1 -79 -2 -136 -3 l-102 -2 0 33 c0 22 5 32 15 32 8 0 15 7 15 15 0 8
9 15 20 15 20 0 20 5 18 353 l-3 352 -132 3 -133 3 0 -355 c0 -351 0 -354 21
-359 12 -3 18 -10 14 -16 -3 -7 2 -11 14 -11 17 0 21 -6 21 -30 l0 -30 -135 0
-135 0 0 94 0 95 -30 3 -30 3 -4 125 c-2 69 -4 394 -5 723 -1 524 -3 597 -16
597 -8 0 -15 7 -15 15 0 8 -9 15 -20 15 -16 0 -20 7 -20 35 l0 35 135 0 135 0
0 -35z m1080 0 c0 -33 2 -35 35 -35 l35 0 0 -335 0 -335 30 0 c29 0 29 0 32
-67 l3 -68 63 -3 62 -3 0 71 0 70 35 0 35 0 0 335 0 335 35 0 c33 0 35 2 35
35 l0 35 135 0 135 0 0 -35 c0 -28 -4 -35 -20 -35 -11 0 -20 -7 -20 -15 0 -8
-7 -15 -15 -15 -13 0 -15 -38 -15 -285 l0 -285 -30 0 -30 0 0 -70 0 -70 -35 0
c-33 0 -35 -2 -35 -35 0 -33 -2 -35 -35 -35 -33 0 -35 -2 -35 -35 0 -33 -2
-35 -35 -35 l-35 0 0 -300 0 -300 -35 0 -35 0 0 -95 0 -95 -66 0 -65 0 3 95 3
94 -34 3 -34 3 -2 110 c0 61 -2 194 -3 298 l-2 187 -30 0 c-28 0 -30 3 -30 35
0 33 -2 35 -35 35 -33 0 -35 2 -35 35 0 32 -2 35 -30 35 l-30 0 0 70 0 70 -35
0 -35 0 0 285 c0 278 0 285 -20 285 -11 0 -20 7 -20 15 0 8 -7 15 -15 15 -10
0 -15 11 -15 35 l0 35 135 0 135 0 0 -35z m1140 0 l0 -35 100 0 100 0 0 -35
c0 -33 2 -35 35 -35 33 0 35 -2 35 -36 0 -34 1 -35 33 -32 30 3 32 1 32 -27 1
-27 4 -30 33 -30 29 0 32 -2 32 -32 l0 -33 65 0 65 0 0 -645 c0 -567 2 -645
15 -645 10 0 15 -11 15 -35 0 -28 4 -35 20 -35 15 0 20 -7 20 -25 l0 -25 -130
0 -130 0 0 95 0 95 -33 0 -34 0 -6 511 c-4 281 -5 515 -1 520 3 5 -4 9 -15 9
-14 0 -21 6 -21 20 0 11 -7 20 -15 20 -8 0 -15 7 -15 15 0 8 -7 15 -15 15 -8
0 -15 9 -15 20 0 13 -5 18 -15 14 -10 -4 -15 0 -15 15 0 14 -6 21 -20 21 -11
0 -20 7 -20 15 0 10 -11 15 -35 15 -24 0 -35 -5 -35 -15 0 -8 -7 -15 -15 -15
-13 0 -15 -72 -15 -590 l0 -590 -35 0 -35 0 0 -86 c0 -78 -1 -84 -16 -70 -11
12 -26 14 -57 10 -58 -9 -59 -14 -4 -14 26 0 47 -4 47 -9 0 -5 8 -12 18 -14 9
-3 -44 -5 -118 -5 -74 0 -127 2 -117 5 9 2 15 9 11 14 -3 5 -10 7 -15 4 -5 -4
-9 1 -9 9 0 9 7 16 15 16 10 0 15 10 15 34 0 26 5 35 21 39 17 5 20 11 15 29
-3 13 -6 353 -6 756 0 644 -2 732 -15 732 -8 0 -15 7 -15 15 0 8 -9 15 -20 15
-16 0 -20 7 -20 35 l0 35 170 0 170 0 0 -35z m1003 15 c4 -15 14 -20 36 -20
21 0 31 -5 31 -15 0 -9 -6 -12 -15 -9 -12 5 -15 -3 -15 -35 0 -35 3 -41 21
-41 17 0 20 -4 15 -22 -3 -13 -6 -42 -6 -65 0 -32 -4 -43 -15 -43 -8 0 -15 -7
-15 -15 0 -8 -6 -15 -14 -15 -7 0 -16 -9 -19 -20 -4 -15 -14 -20 -39 -21 -18
-1 -25 -3 -15 -6 37 -10 14 -20 -48 -22 -59 -2 -65 0 -65 19 0 11 -7 20 -15
20 -8 0 -15 7 -15 15 0 11 -12 15 -50 15 l-50 0 0 44 c0 24 -3 52 -6 61 -5 11
0 18 15 22 16 4 21 13 21 39 0 24 5 34 15 34 8 0 15 7 15 15 0 8 9 15 20 15
13 0 20 7 20 19 0 10 6 19 13 18 38 -1 57 5 57 18 0 12 13 15 59 15 50 0 59
-3 64 -20z m877 5 c0 -8 7 -15 16 -15 9 0 18 -9 21 -20 3 -11 12 -20 19 -20
11 0 14 -26 14 -130 l0 -130 100 0 c93 0 100 -1 100 -20 0 -11 7 -20 15 -20 8
0 15 -7 15 -15 0 -8 9 -15 20 -15 13 0 20 -7 20 -20 0 -11 7 -20 15 -20 8 0
15 -7 15 -15 0 -8 9 -15 20 -15 13 0 20 -7 20 -20 0 -11 7 -20 15 -20 8 0 15
-7 15 -15 0 -8 7 -15 15 -15 12 0 15 -18 15 -100 l0 -100 36 0 35 0 -5 -132
-5 -133 -31 -3 -30 -3 0 -100 c0 -81 -3 -99 -15 -99 -8 0 -15 -9 -15 -20 0
-11 -7 -20 -15 -20 -8 0 -15 -7 -15 -15 0 -8 -9 -15 -20 -15 -11 0 -20 -7 -20
-15 0 -8 -7 -15 -15 -15 -8 0 -15 -7 -15 -15 0 -8 -9 -15 -20 -15 -11 0 -20
-7 -20 -15 0 -8 -7 -15 -15 -15 -8 0 -15 -9 -15 -20 0 -19 -7 -20 -100 -20
l-100 0 0 -120 c0 -73 4 -120 10 -120 6 0 10 -9 10 -20 0 -13 7 -20 20 -20 12
0 20 -7 20 -17 0 -14 -2 -15 -9 -4 -5 8 -18 12 -30 8 -14 -3 -21 0 -21 9 0 8
-6 14 -14 14 -13 0 -26 60 -26 124 l0 31 -59 -3 c-55 -3 -60 -2 -64 20 -2 12
-5 -14 -6 -59 -1 -68 2 -83 14 -83 8 0 15 -9 15 -20 0 -13 7 -20 18 -20 10 0
19 -7 19 -15 0 -11 -6 -14 -16 -9 -9 4 -24 7 -33 8 -10 0 -18 6 -18 13 0 7 -7
13 -15 13 -13 0 -15 22 -15 135 l0 135 -101 0 c-101 0 -101 0 -97 23 4 20 1
23 -19 19 -16 -3 -23 0 -23 12 0 9 -7 16 -16 16 -11 0 -15 6 -12 18 4 15 1 18
-18 14 -17 -3 -24 0 -24 12 0 9 -7 16 -15 16 -8 0 -15 6 -15 14 0 7 -9 16 -20
19 -11 3 -20 12 -20 21 0 9 -7 16 -15 16 -12 0 -15 18 -15 100 l0 100 -35 0
-35 0 0 135 0 135 35 0 35 0 0 100 c0 82 3 100 15 100 8 0 15 7 15 15 0 8 9
15 20 15 13 0 20 7 20 20 0 11 7 20 15 20 8 0 15 7 15 15 0 8 9 15 20 15 13 0
20 7 20 20 0 11 7 20 15 20 8 0 15 7 15 15 0 8 7 15 16 15 9 0 18 9 21 20 5
18 14 20 99 20 l94 0 0 115 c0 96 -3 115 -15 115 -8 0 -15 7 -15 15 0 8 -9 15
-20 15 -16 0 -20 7 -20 35 l0 35 105 0 c87 0 105 -3 105 -15z m1540 1 c0 -7 9
-16 20 -19 11 -3 20 -12 20 -21 0 -9 7 -16 15 -16 13 0 15 -94 15 -790 0 -666
2 -790 14 -790 7 0 16 -9 19 -20 3 -11 12 -20 21 -20 10 0 16 -9 16 -24 l0
-25 -147 -3 c-82 -2 -158 -2 -170 0 l-23 3 0 735 0 734 -98 0 -97 0 0 -32 c0
-30 -3 -33 -32 -36 -28 -3 -32 -7 -35 -35 -3 -29 -6 -32 -35 -29 l-33 2 0
-548 c0 -302 -3 -604 -7 -670 l-6 -122 -129 0 c-107 0 -128 2 -128 15 0 12 19
15 115 15 l115 0 -1 118 c-1 64 -4 107 -6 94 -3 -17 -9 -22 -20 -17 -9 3 -46
13 -82 22 -36 9 -69 21 -73 27 -4 6 -8 -10 -8 -35 0 -83 -11 -138 -26 -132
-12 4 -14 107 -14 619 0 539 2 614 15 614 8 0 15 7 15 15 0 8 7 15 15 15 8 0
15 9 15 20 0 11 7 20 15 20 8 0 15 7 15 15 0 8 9 15 20 15 13 0 20 7 20 20 0
13 5 18 15 14 9 -4 15 0 15 10 0 9 8 16 20 16 13 0 20 7 20 20 0 13 5 18 15
14 10 -4 15 0 15 15 0 14 6 21 20 21 11 0 20 7 20 15 0 8 7 15 15 15 8 0 15 9
15 20 0 13 7 20 20 20 13 0 18 5 14 15 -4 10 0 15 15 15 14 0 21 6 21 20 0 11
7 20 15 20 8 0 15 7 15 15 0 13 29 15 200 15 164 0 200 -3 200 -14z m540 -51
c0 -33 2 -35 35 -35 l35 0 0 -355 c0 -309 2 -355 15 -355 8 0 15 9 15 20 0 13
7 20 20 20 11 0 20 7 20 15 0 8 4 15 9 15 5 0 11 9 14 20 3 11 12 20 21 20 9
0 16 7 16 15 0 8 7 15 15 15 8 0 15 7 15 16 0 9 9 18 20 21 11 3 20 9 20 14 0
5 16 9 35 9 l35 0 0 255 0 255 33 0 c30 0 32 2 32 33 l0 32 133 3 132 3 0 -36
c0 -24 -5 -35 -15 -35 -8 0 -15 -9 -15 -20 0 -13 -7 -20 -20 -20 -20 0 -20 -7
-20 -720 l0 -720 -35 0 -35 0 0 -100 0 -100 -130 0 -130 0 0 35 c0 24 5 35 15
35 8 0 15 4 15 9 0 5 9 11 20 14 20 5 20 14 20 406 0 394 0 401 -20 401 -11 0
-20 -7 -20 -15 0 -8 -7 -15 -15 -15 -8 0 -15 -9 -15 -20 0 -13 -7 -20 -20 -20
-11 0 -20 -7 -20 -15 0 -8 -7 -15 -15 -15 -8 0 -15 -7 -15 -15 0 -8 -9 -15
-21 -15 -11 0 -17 -5 -14 -10 3 -6 -1 -13 -9 -16 -9 -3 -16 -12 -16 -20 0 -9
-12 -14 -35 -14 l-35 0 0 -310 c0 -269 2 -310 15 -310 8 0 15 -4 15 -10 0 -5
9 -10 20 -10 16 0 20 -7 20 -35 l0 -35 -135 0 -134 0 -3 98 -3 97 -31 3 -31 3
-6 202 c-4 111 -7 435 -7 720 0 338 -3 517 -10 517 -5 0 -10 9 -10 20 0 13 -7
20 -20 20 -15 0 -20 7 -20 28 0 16 3 32 7 35 3 4 64 7 135 7 l128 0 0 -35z
m-2860 -20 c0 -8 -4 -15 -10 -15 -5 0 -10 7 -10 15 0 8 5 15 10 15 6 0 10 -7
10 -15z m40 -55 c0 -20 -5 -30 -15 -30 -10 0 -15 10 -15 30 0 20 5 30 15 30
10 0 15 -10 15 -30z m30 -70 c0 -16 -4 -30 -9 -30 -5 0 -11 14 -13 30 -3 20 0
30 9 30 8 0 13 -12 13 -30z m-3652 -107 c-5 -26 -38 -29 -38 -4 0 15 6 21 21
21 14 0 19 -5 17 -17z m7182 -3 c0 -11 -7 -20 -15 -20 -8 0 -15 9 -15 20 0 11
7 20 15 20 8 0 15 -9 15 -20z m-3930 -36 c0 -8 -7 -14 -15 -14 -8 0 -15 9 -15
20 0 13 5 18 15 14 8 -4 15 -12 15 -20z m370 1 c0 -8 -7 -15 -15 -15 -8 0 -15
7 -15 15 0 8 7 15 15 15 8 0 15 -7 15 -15z m-330 -30 c0 -8 7 -15 15 -15 8 0
15 -8 15 -18 0 -10 -7 -19 -15 -19 -8 0 -15 9 -15 19 0 11 -7 18 -20 18 -13 0
-18 5 -14 15 4 8 12 15 20 15 8 0 14 -7 14 -15z m290 0 c0 -8 -4 -15 -10 -15
-5 0 -10 7 -10 15 0 8 5 15 10 15 6 0 10 -7 10 -15z m-30 -35 c0 -5 -7 -10
-15 -10 -8 0 -15 5 -15 10 0 6 7 10 15 10 8 0 15 -4 15 -10z m-130 -35 c0 -10
-10 -15 -30 -15 -20 0 -30 5 -30 15 0 10 10 15 30 15 20 0 30 -5 30 -15z m60
0 c0 -8 -7 -15 -15 -15 -8 0 -15 7 -15 15 0 8 7 15 15 15 8 0 15 -7 15 -15z
m3700 -137 c0 -10 -7 -18 -15 -18 -8 0 -15 8 -15 18 0 10 7 19 15 19 8 0 15
-9 15 -19z m-7180 -3 c0 -8 -9 -15 -20 -15 -11 0 -20 7 -20 15 0 8 9 15 20 15
11 0 20 -7 20 -15z m3620 -45 c0 -20 -5 -30 -15 -30 -8 0 -15 -9 -15 -20 0
-13 -7 -20 -20 -20 -20 0 -20 -7 -20 -485 0 -408 -2 -485 -14 -485 -8 0 -17 7
-20 16 -3 8 -10 12 -16 9 -5 -3 -10 3 -10 14 0 12 7 21 15 21 12 0 15 13 15
60 0 33 -3 60 -8 60 -45 0 -178 -24 -184 -33 -4 -7 -8 -44 -8 -84 0 -60 3 -72
18 -76 9 -3 -2 -3 -24 0 -26 3 -44 1 -48 -6 -4 -6 -4 -11 1 -10 4 1 41 1 81 0
57 -1 72 -4 72 -16 0 -12 -18 -15 -100 -15 l-100 0 0 25 c0 18 5 25 20 25 13
0 20 7 20 20 0 11 7 20 15 20 13 0 15 61 15 490 0 429 2 490 15 490 8 0 15 7
15 16 0 9 9 18 20 21 11 3 20 9 20 14 0 5 59 9 130 9 l130 0 0 -30z m1947
-150 c3 -11 12 -20 19 -20 8 0 14 -7 14 -15 0 -8 6 -15 14 -15 7 0 16 -9 19
-20 3 -11 12 -20 21 -20 25 0 22 -60 -4 -67 -11 -3 -20 -12 -20 -19 0 -8 -7
-14 -15 -14 -8 0 -15 -4 -15 -9 0 -5 -9 -11 -20 -14 -11 -3 -19 -11 -18 -19 2
-8 -9 -14 -29 -16 -28 -3 -33 0 -33 17 0 12 -7 21 -15 21 -8 0 -15 5 -15 10 0
6 -7 10 -15 10 -8 0 -15 7 -15 15 0 8 -9 15 -20 15 -30 0 -29 65 1 73 12 3 18
10 14 17 -4 7 2 14 14 17 12 3 21 12 21 19 0 8 7 14 15 14 8 0 15 9 15 20 0
16 7 20 31 20 22 0 32 -5 36 -20z m-5572 -70 c0 -8 -8 -16 -17 -18 -13 -2 -18
3 -18 18 0 15 5 20 18 18 9 -2 17 -10 17 -18z m7185 0 c0 -11 -7 -20 -15 -20
-8 0 -15 9 -15 20 0 11 7 20 15 20 8 0 15 -9 15 -20z m-7185 -300 c0 -8 -8
-16 -17 -18 -13 -2 -18 3 -18 18 0 15 5 20 18 18 9 -2 17 -10 17 -18z m7185 0
c0 -11 -7 -20 -15 -20 -8 0 -15 9 -15 20 0 11 7 20 15 20 8 0 15 -9 15 -20z
m-7180 -265 c0 -8 -9 -15 -20 -15 -11 0 -20 7 -20 15 0 8 9 15 20 15 11 0 20
-7 20 -15z m7180 0 c0 -8 -7 -15 -15 -15 -8 0 -15 7 -15 15 0 8 7 15 15 15 8
0 15 -7 15 -15z m-7180 -298 c0 -19 -10 -27 -26 -20 -21 8 -17 33 6 33 11 0
20 -6 20 -13z m7180 -5 c0 -10 -7 -19 -15 -19 -8 0 -15 9 -15 19 0 10 7 18 15
18 8 0 15 -8 15 -18z m-2732 -9 c-26 -2 -71 -2 -100 0 -29 2 -8 3 47 3 55 0
79 -1 53 -3z m342 -88 c0 -20 5 -25 25 -25 l25 0 -2 -312 -3 -313 -57 -3 -58
-3 0 75 c0 42 -5 78 -11 81 -6 4 -26 4 -45 1 l-34 -7 0 -73 0 -73 -31 -7 c-17
-3 -44 -6 -60 -6 l-29 0 0 314 0 314 25 6 c18 5 25 13 25 31 l0 25 115 0 115
0 0 -25z m-2650 -5 c0 -5 -7 -10 -15 -10 -8 0 -15 5 -15 10 0 6 7 10 15 10 8
0 15 -4 15 -10z m1390 -60 l0 -60 -105 0 -105 0 0 -50 0 -50 80 0 80 0 0 -31
c0 -27 -3 -31 -22 -26 -12 4 -48 4 -80 0 l-58 -6 0 -150 0 -150 104 6 103 7 6
-36 c3 -19 2 -46 -3 -58 -8 -22 -13 -23 -167 -28 -87 -3 -159 -5 -160 -4 -1 1
-3 154 -4 341 l-2 340 154 5 c85 3 160 7 167 8 8 1 12 -16 12 -58z m-640 -247
l0 -286 104 6 104 7 4 -38 c3 -20 1 -47 -3 -59 -8 -22 -14 -23 -107 -23 -55 0
-127 -3 -161 -6 l-61 -7 0 347 0 346 60 0 60 0 0 -287z m-280 242 c0 -20 5
-25 25 -25 l25 0 0 -284 0 -285 -22 -3 c-17 -2 -24 -11 -26 -30 l-3 -28 -92 0
c-51 0 -102 -3 -114 -6 -20 -6 -23 -3 -23 25 0 26 -4 31 -25 31 l-25 0 0 284
0 284 25 6 c18 5 25 13 25 31 l0 25 115 0 115 0 0 -25z"/>
<path d="M5311 2908 c-1 -61 -3 -68 -21 -68 -13 0 -20 -7 -20 -20 0 -18 7 -20
65 -20 58 0 65 2 65 20 0 14 7 20 21 20 17 0 20 4 15 23 -3 12 -6 36 -6 52 l0
30 -54 -3 c-46 -3 -55 -1 -59 15 -3 10 -5 -12 -6 -49z"/>
<path d="M5911 2887 l-1 -88 80 2 c67 3 80 6 80 20 0 9 -7 19 -15 23 -10 3
-15 19 -15 48 l0 43 -59 -3 c-55 -3 -60 -2 -64 20 -2 12 -5 -17 -6 -65z"/>
<path d="M7090 3850 l0 -100 -35 0 -35 0 0 -103 0 -102 33 0 32 0 3 -132 3
-133 94 0 95 0 0 335 0 335 -95 0 -95 0 0 -100z"/>
<path d="M7490 3615 l0 -335 100 0 100 0 0 103 0 102 33 0 32 0 3 98 3 97 -36
0 -35 0 0 135 0 135 -100 0 -100 0 0 -335z"/>
<path d="M6950 3260 c0 -6 7 -10 15 -10 8 0 15 2 15 4 0 2 -7 6 -15 10 -8 3
-15 1 -15 -4z"/>
<path d="M7798 3253 c7 -3 16 -2 19 1 4 3 -2 6 -13 5 -11 0 -14 -3 -6 -6z"/>
<path d="M7098 3233 c7 -3 16 -2 19 1 4 3 -2 6 -13 5 -11 0 -14 -3 -6 -6z"/>
<path d="M7258 3233 c7 -3 16 -2 19 1 4 3 -2 6 -13 5 -11 0 -14 -3 -6 -6z"/>
<path d="M7668 3233 c7 -3 16 -2 19 1 4 3 -2 6 -13 5 -11 0 -14 -3 -6 -6z"/>
<path d="M6296 2781 c-4 -7 -5 -15 -2 -18 9 -9 19 4 14 18 -4 11 -6 11 -12 0z"/>
<path d="M8583 3493 c9 -2 23 -2 30 0 6 3 -1 5 -18 5 -16 0 -22 -2 -12 -5z"/>
<path d="M7697 2573 c-4 -3 -7 -85 -7 -180 l0 -174 43 3 42 3 3 178 2 177 -38
0 c-21 0 -42 -3 -45 -7z"/>
<path d="M5517 2503 c-4 -3 -7 -107 -7 -230 l0 -223 45 0 45 0 0 230 0 230
-38 0 c-21 0 -42 -3 -45 -7z"/>
<path d="M6820 2450 l0 -100 45 0 45 0 0 100 0 100 -45 0 -45 0 0 -100z"/>
<path d="M5080 2400 l0 -100 45 0 45 0 0 100 0 100 -45 0 -45 0 0 -100z"/>
<path d="M4937 2453 c-30 -69 -40 -132 -34 -216 5 -79 29 -171 48 -183 5 -3 9
86 9 215 0 122 -2 221 -3 221 -2 0 -11 -17 -20 -37z"/>
</g>
</svg>
