<?xml version="1.0" encoding="UTF-8"?>
<svg version="1.1" xmlns="http://www.w3.org/2000/svg" width="512" height="512">
<path d="M0 0 C116.16 0 232.32 0 352 0 C352 15.84 352 31.68 352 48 C349.36 48 346.72 48 344 48 C344 53.28 344 58.56 344 64 C341.36 64 338.72 64 336 64 C336 182.8 336 301.6 336 424 C333.36 424 330.72 424 328 424 C328 426.64 328 429.28 328 432 C325.36 432 322.72 432 320 432 C320 439.92 320 447.84 320 456 C317.36 456 314.72 456 312 456 C312 458.64 312 461.28 312 464 C309.36 464 306.72 464 304 464 C304 466.64 304 469.28 304 472 C298.72 472 293.44 472 288 472 C288 474.64 288 477.28 288 480 C285.36 480 282.72 480 280 480 C280 482.64 280 485.28 280 488 C274.72 488 269.44 488 264 488 C264 490.64 264 493.28 264 496 C205.92 496 147.84 496 88 496 C88 493.36 88 490.72 88 488 C82.72 488 77.44 488 72 488 C72 485.36 72 482.72 72 480 C69.36 480 66.72 480 64 480 C64 477.36 64 474.72 64 472 C58.72 472 53.44 472 48 472 C48 469.36 48 466.72 48 464 C45.36 464 42.72 464 40 464 C40 461.36 40 458.72 40 456 C37.36 456 34.72 456 32 456 C32 448.08 32 440.16 32 432 C29.36 432 26.72 432 24 432 C24 429.36 24 426.72 24 424 C21.36 424 18.72 424 16 424 C16 305.2 16 186.4 16 64 C13.36 64 10.72 64 8 64 C8 58.72 8 53.44 8 48 C5.36 48 2.72 48 0 48 C0 32.16 0 16.32 0 0 Z " fill="#111511" transform="translate(80,8)"/>
<path d="M0 0 C21.12 0 42.24 0 64 0 C64 5.28 64 10.56 64 16 C69.28 16 74.56 16 80 16 C80 74.08 80 132.16 80 192 C101.12 192 122.24 192 144 192 C144 133.92 144 75.84 144 16 C149.28 16 154.56 16 160 16 C160 10.72 160 5.44 160 0 C181.12 0 202.24 0 224 0 C224 5.28 224 10.56 224 16 C221.36 16 218.72 16 216 16 C216 18.64 216 21.28 216 24 C213.36 24 210.72 24 208 24 C208 124.32 208 224.64 208 328 C205.36 328 202.72 328 200 328 C200 288.4 200 248.8 200 208 C141.92 208 83.84 208 24 208 C24 244.96 24 281.92 24 320 C21.36 320 18.72 320 16 320 C16 222.32 16 124.64 16 24 C13.36 24 10.72 24 8 24 C8 21.36 8 18.72 8 16 C5.36 16 2.72 16 0 16 C0 10.72 0 5.44 0 0 Z " fill="#F3EFF1" transform="translate(144,48)"/>
<path d="M0 0 C81.84 0 163.68 0 248 0 C248 5.28 248 10.56 248 16 C245.36 16 242.72 16 240 16 C240 29.2 240 42.4 240 56 C234.72 56 229.44 56 224 56 C224 58.64 224 61.28 224 64 C226.64 64 229.28 64 232 64 C232 66.64 232 69.28 232 72 C234.64 72 237.28 72 240 72 C240 95.76 240 119.52 240 144 C234.72 144 229.44 144 224 144 C224 146.64 224 149.28 224 152 C221.36 152 218.72 152 216 152 C216.33 154.64 216.66 157.28 217 160 C219.31 160 221.62 160 224 160 C224 162.64 224 165.28 224 168 C226.64 168 229.28 168 232 168 C232 170.64 232 173.28 232 176 C234.64 176 237.28 176 240 176 C240 210.32 240 244.64 240 280 C237.36 280 234.72 280 232 280 C232 282.64 232 285.28 232 288 C229.36 288 226.72 288 224 288 C224 290.64 224 293.28 224 296 C226.64 296 229.28 296 232 296 C232 306.56 232 317.12 232 328 C234.64 328 237.28 328 240 328 C240 338.56 240 349.12 240 360 C232.08 360 224.16 360 216 360 C216.33 362.64 216.66 365.28 217 368 C224.59 368 232.18 368 240 368 C240 373.28 240 378.56 240 384 C224.16 384 208.32 384 192 384 C192 381.36 192 378.72 192 376 C197.28 376 202.56 376 208 376 C208 262.48 208 148.96 208 32 C210.64 32 213.28 32 216 32 C216 29.36 216 26.72 216 24 C218.64 24 221.28 24 224 24 C224 18.72 224 13.44 224 8 C202.88 8 181.76 8 160 8 C160 13.28 160 18.56 160 24 C154.72 24 149.44 24 144 24 C144 82.08 144 140.16 144 200 C122.88 200 101.76 200 80 200 C80 141.92 80 83.84 80 24 C74.72 24 69.44 24 64 24 C64 18.72 64 13.44 64 8 C42.88 8 21.76 8 0 8 C0 5.36 0 2.72 0 0 Z " fill="#212720" transform="translate(144,40)"/>
<path d="M0 0 C58.08 0 116.16 0 176 0 C176 39.6 176 79.2 176 120 C178.64 120 181.28 120 184 120 C184 133.2 184 146.4 184 160 C178.72 160 173.44 160 168 160 C168 175.84 168 191.68 168 208 C146.88 208 125.76 208 104 208 C104 202.72 104 197.44 104 192 C106.64 192 109.28 192 112 192 C112 189.36 112 186.72 112 184 C114.64 184 117.28 184 120 184 C120 128.56 120 73.12 120 16 C98.88 16 77.76 16 56 16 C56 71.44 56 126.88 56 184 C58.64 184 61.28 184 64 184 C64 186.64 64 189.28 64 192 C66.64 192 69.28 192 72 192 C72 197.28 72 202.56 72 208 C50.88 208 29.76 208 8 208 C8 192.16 8 176.32 8 160 C2.72 160 -2.56 160 -8 160 C-8 144.16 -8 128.32 -8 112 C-5.36 112 -2.72 112 0 112 C0 75.04 0 38.08 0 0 Z " fill="#DC32A0" transform="translate(168,256)"/>
<path d="M0 0 C116.16 0 232.32 0 352 0 C352 15.84 352 31.68 352 48 C349.36 48 346.72 48 344 48 C344 53.28 344 58.56 344 64 C341.36 64 338.72 64 336 64 C336 182.8 336 301.6 336 424 C333.36 424 330.72 424 328 424 C328 426.64 328 429.28 328 432 C325.36 432 322.72 432 320 432 C320 439.92 320 447.84 320 456 C317.36 456 314.72 456 312 456 C312 458.64 312 461.28 312 464 C309.36 464 306.72 464 304 464 C304 466.64 304 469.28 304 472 C298.72 472 293.44 472 288 472 C288 474.64 288 477.28 288 480 C285.36 480 282.72 480 280 480 C280 482.64 280 485.28 280 488 C274.72 488 269.44 488 264 488 C264 490.64 264 493.28 264 496 C205.92 496 147.84 496 88 496 C88 493.36 88 490.72 88 488 C82.72 488 77.44 488 72 488 C72 485.36 72 482.72 72 480 C69.36 480 66.72 480 64 480 C64 477.36 64 474.72 64 472 C58.72 472 53.44 472 48 472 C48 469.36 48 466.72 48 464 C45.36 464 42.72 464 40 464 C40 461.36 40 458.72 40 456 C37.36 456 34.72 456 32 456 C32 448.08 32 440.16 32 432 C29.36 432 26.72 432 24 432 C24 429.36 24 426.72 24 424 C21.36 424 18.72 424 16 424 C16 305.2 16 186.4 16 64 C13.36 64 10.72 64 8 64 C8 58.72 8 53.44 8 48 C5.36 48 2.72 48 0 48 C0 32.16 0 16.32 0 0 Z M16 16 C16 26.56 16 37.12 16 48 C18.64 48 21.28 48 24 48 C24 53.28 24 58.56 24 64 C26.64 64 29.28 64 32 64 C32 180.16 32 296.32 32 416 C34.64 416 37.28 416 40 416 C40 418.64 40 421.28 40 424 C42.64 424 45.28 424 48 424 C48 431.92 48 439.84 48 448 C50.64 448 53.28 448 56 448 C56 450.64 56 453.28 56 456 C61.28 456 66.56 456 72 456 C72 458.64 72 461.28 72 464 C74.64 464 77.28 464 80 464 C80 466.64 80 469.28 80 472 C82.64 472 85.28 472 88 472 C88 474.64 88 477.28 88 480 C146.08 480 204.16 480 264 480 C264 477.36 264 474.72 264 472 C266.64 472 269.28 472 272 472 C272 469.36 272 466.72 272 464 C274.64 464 277.28 464 280 464 C280 461.36 280 458.72 280 456 C285.28 456 290.56 456 296 456 C296 453.36 296 450.72 296 448 C298.64 448 301.28 448 304 448 C304 440.08 304 432.16 304 424 C306.64 424 309.28 424 312 424 C312 421.36 312 418.72 312 416 C314.64 416 317.28 416 320 416 C320 299.84 320 183.68 320 64 C322.64 64 325.28 64 328 64 C328 53.44 328 42.88 328 32 C330.64 32 333.28 32 336 32 C336 26.72 336 21.44 336 16 C230.4 16 124.8 16 16 16 Z " fill="#4C474E" transform="translate(80,8)"/>
<path d="M0 0 C13.2 0 26.4 0 40 0 C40 5.28 40 10.56 40 16 C37.36 16 34.72 16 32 16 C32 116.32 32 216.64 32 320 C29.36 320 26.72 320 24 320 C24 280.4 24 240.8 24 200 C-34.08 200 -92.16 200 -152 200 C-152 184.16 -152 168.32 -152 152 C-149.36 152 -146.72 152 -144 152 C-144 146.72 -144 141.44 -144 136 C-141.36 136 -138.72 136 -136 136 C-136 133.36 -136 130.72 -136 128 C-133.36 128 -130.72 128 -128 128 C-128 125.36 -128 122.72 -128 120 C-125.36 120 -122.72 120 -120 120 C-120 117.36 -120 114.72 -120 112 C-117.36 112 -114.72 112 -112 112 C-112 109.36 -112 106.72 -112 104 C-109.36 104 -106.72 104 -104 104 C-104 133.04 -104 162.08 -104 192 C-77.6 192 -51.2 192 -24 192 C-24 178.8 -24 165.6 -24 152 C-21.36 152 -18.72 152 -16 152 C-16 146.72 -16 141.44 -16 136 C-13.36 136 -10.72 136 -8 136 C-8 133.36 -8 130.72 -8 128 C-5.36 128 -2.72 128 0 128 C0 125.36 0 122.72 0 120 C2.64 120 5.28 120 8 120 C8 112.08 8 104.16 8 96 C13.28 96 18.56 96 24 96 C24 85.44 24 74.88 24 64 C18.72 64 13.44 64 8 64 C8 66.64 8 69.28 8 72 C5.36 72 2.72 72 0 72 C0 74.64 0 77.28 0 80 C-2.64 80 -5.28 80 -8 80 C-8 82.64 -8 85.28 -8 88 C-10.64 88 -13.28 88 -16 88 C-16 90.64 -16 93.28 -16 96 C-18.64 96 -21.28 96 -24 96 C-24 74.88 -24 53.76 -24 32 C-21.36 32 -18.72 32 -16 32 C-16 29.36 -16 26.72 -16 24 C-13.36 24 -10.72 24 -8 24 C-8 21.36 -8 18.72 -8 16 C-5.36 16 -2.72 16 0 16 C0 10.72 0 5.44 0 0 Z " fill="#FEA3D4" transform="translate(320,56)"/>
<path d="M0 0 C21.12 0 42.24 0 64 0 C64 55.44 64 110.88 64 168 C61.36 168 58.72 168 56 168 C56 170.64 56 173.28 56 176 C53.36 176 50.72 176 48 176 C48 181.28 48 186.56 48 192 C55.92 192 63.84 192 72 192 C72 194.64 72 197.28 72 200 C40.32 200 8.64 200 -24 200 C-24 197.36 -24 194.72 -24 192 C-10.8 192 2.4 192 16 192 C16 186.72 16 181.44 16 176 C13.36 176 10.72 176 8 176 C8 173.36 8 170.72 8 168 C5.36 168 2.72 168 0 168 C0 112.56 0 57.12 0 0 Z " fill="#232922" transform="translate(224,272)"/>
<path d="M0 0 C2.64 0 5.28 0 8 0 C8 52.8 8 105.6 8 160 C10.64 160 13.28 160 16 160 C16 162.64 16 165.28 16 168 C18.64 168 21.28 168 24 168 C24 175.92 24 183.84 24 192 C26.64 192 29.28 192 32 192 C32 194.64 32 197.28 32 200 C37.28 200 42.56 200 48 200 C48 202.64 48 205.28 48 208 C50.64 208 53.28 208 56 208 C56 210.64 56 213.28 56 216 C58.64 216 61.28 216 64 216 C64 218.64 64 221.28 64 224 C122.08 224 180.16 224 240 224 C240 221.36 240 218.72 240 216 C242.64 216 245.28 216 248 216 C248 213.36 248 210.72 248 208 C250.64 208 253.28 208 256 208 C256 205.36 256 202.72 256 200 C261.28 200 266.56 200 272 200 C272 197.36 272 194.72 272 192 C274.64 192 277.28 192 280 192 C280 184.08 280 176.16 280 168 C282.64 168 285.28 168 288 168 C288 165.36 288 162.72 288 160 C290.64 160 293.28 160 296 160 C296 107.2 296 54.4 296 0 C298.64 0 301.28 0 304 0 C304 5.28 304 10.56 304 16 C306.64 16 309.28 16 312 16 C312 66.16 312 116.32 312 168 C309.36 168 306.72 168 304 168 C304 170.64 304 173.28 304 176 C301.36 176 298.72 176 296 176 C296 183.92 296 191.84 296 200 C293.36 200 290.72 200 288 200 C288 202.64 288 205.28 288 208 C285.36 208 282.72 208 280 208 C280 210.64 280 213.28 280 216 C274.72 216 269.44 216 264 216 C264 218.64 264 221.28 264 224 C261.36 224 258.72 224 256 224 C256 226.64 256 229.28 256 232 C250.72 232 245.44 232 240 232 C240 234.64 240 237.28 240 240 C181.92 240 123.84 240 64 240 C64 237.36 64 234.72 64 232 C58.72 232 53.44 232 48 232 C48 229.36 48 226.72 48 224 C45.36 224 42.72 224 40 224 C40 221.36 40 218.72 40 216 C34.72 216 29.44 216 24 216 C24 213.36 24 210.72 24 208 C21.36 208 18.72 208 16 208 C16 205.36 16 202.72 16 200 C13.36 200 10.72 200 8 200 C8 192.08 8 184.16 8 176 C5.36 176 2.72 176 0 176 C0 173.36 0 170.72 0 168 C-2.64 168 -5.28 168 -8 168 C-8 117.84 -8 67.68 -8 16 C-5.36 16 -2.72 16 0 16 C0 10.72 0 5.44 0 0 Z " fill="#4C474E" transform="translate(104,264)"/>
<path d="M0 0 C13.2 0 26.4 0 40 0 C40 5.28 40 10.56 40 16 C37.36 16 34.72 16 32 16 C32 116.32 32 216.64 32 320 C29.36 320 26.72 320 24 320 C24 248.72 24 177.44 24 104 C21.36 104 18.72 104 16 104 C16 106.64 16 109.28 16 112 C13.36 112 10.72 112 8 112 C8 106.72 8 101.44 8 96 C13.28 96 18.56 96 24 96 C24 85.44 24 74.88 24 64 C18.72 64 13.44 64 8 64 C8 66.64 8 69.28 8 72 C5.36 72 2.72 72 0 72 C0 74.64 0 77.28 0 80 C-2.64 80 -5.28 80 -8 80 C-8 82.64 -8 85.28 -8 88 C-10.64 88 -13.28 88 -16 88 C-16 90.64 -16 93.28 -16 96 C-18.64 96 -21.28 96 -24 96 C-24 74.88 -24 53.76 -24 32 C-21.36 32 -18.72 32 -16 32 C-16 29.36 -16 26.72 -16 24 C-13.36 24 -10.72 24 -8 24 C-8 21.36 -8 18.72 -8 16 C-5.36 16 -2.72 16 0 16 C0 10.72 0 5.44 0 0 Z " fill="#F3EFF1" transform="translate(320,56)"/>
<path d="M0 0 C21.12 0 42.24 0 64 0 C64 5.28 64 10.56 64 16 C61.36 16 58.72 16 56 16 C56 13.36 56 10.72 56 8 C42.8 8 29.6 8 16 8 C16 13.28 16 18.56 16 24 C13.36 24 10.72 24 8 24 C8 26.64 8 29.28 8 32 C5.36 32 2.72 32 0 32 C0 34.64 0 37.28 0 40 C-2.64 40 -5.28 40 -8 40 C-8 61.12 -8 82.24 -8 104 C-5.36 104 -2.72 104 0 104 C0 101.36 0 98.72 0 96 C2.64 96 5.28 96 8 96 C8 93.36 8 90.72 8 88 C10.64 88 13.28 88 16 88 C16 85.36 16 82.72 16 80 C18.64 80 21.28 80 24 80 C24 77.36 24 74.72 24 72 C29.28 72 34.56 72 40 72 C40 82.56 40 93.12 40 104 C34.72 104 29.44 104 24 104 C24 111.92 24 119.84 24 128 C21.36 128 18.72 128 16 128 C16 130.64 16 133.28 16 136 C13.36 136 10.72 136 8 136 C8 138.64 8 141.28 8 144 C5.36 144 2.72 144 0 144 C0 149.28 0 154.56 0 160 C-2.64 160 -5.28 160 -8 160 C-8 173.2 -8 186.4 -8 200 C-31.76 200 -55.52 200 -80 200 C-80 197.36 -80 194.72 -80 192 C-58.88 192 -37.76 192 -16 192 C-16 133.92 -16 75.84 -16 16 C-10.72 16 -5.44 16 0 16 C0 10.72 0 5.44 0 0 Z " fill="#F3F0F2" transform="translate(304,48)"/>
<path d="M0 0 C15.84 0 31.68 0 48 0 C48 18.48 48 36.96 48 56 C42.72 56 37.44 56 32 56 C32 66.56 32 77.12 32 88 C29.36 88 26.72 88 24 88 C24 93.28 24 98.56 24 104 C16.08 104 8.16 104 0 104 C0 69.68 0 35.36 0 0 Z " fill="#B30E4A" transform="translate(296,344)"/>
<path d="M0 0 C15.84 0 31.68 0 48 0 C48 34.32 48 68.64 48 104 C40.08 104 32.16 104 24 104 C24 98.72 24 93.44 24 88 C21.36 88 18.72 88 16 88 C16 77.44 16 66.88 16 56 C10.72 56 5.44 56 0 56 C0 37.52 0 19.04 0 0 Z " fill="#B30E4A" transform="translate(168,344)"/>
<path d="M0 0 C2.64 0 5.28 0 8 0 C8 2.64 8 5.28 8 8 C10.64 8 13.28 8 16 8 C16 58.16 16 108.32 16 160 C13.36 160 10.72 160 8 160 C8 157.36 8 154.72 8 152 C5.36 152 2.72 152 0 152 C0 154.64 0 157.28 0 160 C-2.64 160 -5.28 160 -8 160 C-8 157.36 -8 154.72 -8 152 C-10.64 152 -13.28 152 -16 152 C-16 144.08 -16 136.16 -16 128 C-13.36 128 -10.72 128 -8 128 C-8 122.72 -8 117.44 -8 112 C-2.72 112 2.56 112 8 112 C8 109.36 8 106.72 8 104 C2.72 104 -2.56 104 -8 104 C-8 101.36 -8 98.72 -8 96 C-10.64 96 -13.28 96 -16 96 C-16 88.08 -16 80.16 -16 72 C-13.36 72 -10.72 72 -8 72 C-8 69.36 -8 66.72 -8 64 C-5.36 64 -2.72 64 0 64 C0 61.36 0 58.72 0 56 C-5.28 56 -10.56 56 -16 56 C-16 48.08 -16 40.16 -16 32 C-10.72 32 -5.44 32 0 32 C0 29.36 0 26.72 0 24 C-2.64 24 -5.28 24 -8 24 C-8 21.36 -8 18.72 -8 16 C-5.36 16 -2.72 16 0 16 C0 10.72 0 5.44 0 0 Z " fill="#2D342C" transform="translate(144,64)"/>
<path d="M0 0 C7.92 0 15.84 0 24 0 C24 2.64 24 5.28 24 8 C21.36 8 18.72 8 16 8 C16 18.56 16 29.12 16 40 C18.64 40 21.28 40 24 40 C24 45.28 24 50.56 24 56 C21.36 56 18.72 56 16 56 C16 58.64 16 61.28 16 64 C13.36 64 10.72 64 8 64 C8 66.64 8 69.28 8 72 C5.36 72 2.72 72 0 72 C0 74.64 0 77.28 0 80 C-2.64 80 -5.28 80 -8 80 C-8 82.64 -8 85.28 -8 88 C-10.64 88 -13.28 88 -16 88 C-16 90.64 -16 93.28 -16 96 C-18.64 96 -21.28 96 -24 96 C-24 74.88 -24 53.76 -24 32 C-21.36 32 -18.72 32 -16 32 C-16 29.36 -16 26.72 -16 24 C-13.36 24 -10.72 24 -8 24 C-8 21.36 -8 18.72 -8 16 C-5.36 16 -2.72 16 0 16 C0 10.72 0 5.44 0 0 Z " fill="#FFA1D3" transform="translate(320,56)"/>
<path d="M0 0 C7.92 0 15.84 0 24 0 C24 5.28 24 10.56 24 16 C26.64 16 29.28 16 32 16 C32 18.64 32 21.28 32 24 C34.64 24 37.28 24 40 24 C40 26.64 40 29.28 40 32 C42.64 32 45.28 32 48 32 C48 39.92 48 47.84 48 56 C45.36 56 42.72 56 40 56 C40 58.64 40 61.28 40 64 C37.36 64 34.72 64 32 64 C32 66.64 32 69.28 32 72 C29.36 72 26.72 72 24 72 C24 74.64 24 77.28 24 80 C21.36 80 18.72 80 16 80 C16 82.64 16 85.28 16 88 C13.36 88 10.72 88 8 88 C8 90.64 8 93.28 8 96 C5.36 96 2.72 96 0 96 C0 77.52 0 59.04 0 40 C2.64 40 5.28 40 8 40 C8 29.44 8 18.88 8 8 C5.36 8 2.72 8 0 8 C0 5.36 0 2.72 0 0 Z " fill="#FFA1D3" transform="translate(168,56)"/>
<path d="M0 0 C10.56 0 21.12 0 32 0 C32 29.04 32 58.08 32 88 C21.44 88 10.88 88 0 88 C0 85.36 0 82.72 0 80 C-2.64 80 -5.28 80 -8 80 C-8 77.36 -8 74.72 -8 72 C-2.72 72 2.56 72 8 72 C8 69.36 8 66.72 8 64 C5.36 64 2.72 64 0 64 C0 58.72 0 53.44 0 48 C5.28 48 10.56 48 16 48 C16 45.36 16 42.72 16 40 C13.36 40 10.72 40 8 40 C8 37.36 8 34.72 8 32 C5.36 32 2.72 32 0 32 C0 21.44 0 10.88 0 0 Z " fill="#252C24" transform="translate(128,296)"/>
<path d="M0 0 C2.64 0 5.28 0 8 0 C8 26.4 8 52.8 8 80 C10.64 80 13.28 80 16 80 C16 82.64 16 85.28 16 88 C13.36 88 10.72 88 8 88 C8 156.64 8 225.28 8 296 C5.36 296 2.72 296 0 296 C0 198.32 0 100.64 0 0 Z " fill="#F3F1F2" transform="translate(160,72)"/>
<path d="M0 0 C2.64 0 5.28 0 8 0 C8 10.56 8 21.12 8 32 C13.28 32 18.56 32 24 32 C24 42.56 24 53.12 24 64 C26.64 64 29.28 64 32 64 C32 69.28 32 74.56 32 80 C39.92 80 47.84 80 56 80 C56 69.44 56 58.88 56 48 C58.64 48 61.28 48 64 48 C64 55.92 64 63.84 64 72 C66.64 72 69.28 72 72 72 C72 74.64 72 77.28 72 80 C74.64 80 77.28 80 80 80 C80 85.28 80 90.56 80 96 C58.88 96 37.76 96 16 96 C16 80.16 16 64.32 16 48 C10.72 48 5.44 48 0 48 C0 32.16 0 16.32 0 0 Z " fill="#DD2F89" transform="translate(160,368)"/>
<path d="M0 0 C2.64 0 5.28 0 8 0 C8 13.2 8 26.4 8 40 C2.72 40 -2.56 40 -8 40 C-8 55.84 -8 71.68 -8 88 C-29.12 88 -50.24 88 -72 88 C-72 82.72 -72 77.44 -72 72 C-69.36 72 -66.72 72 -64 72 C-64 69.36 -64 66.72 -64 64 C-61.36 64 -58.72 64 -56 64 C-56 56.08 -56 48.16 -56 40 C-53.36 40 -50.72 40 -48 40 C-48 50.56 -48 61.12 -48 72 C-40.08 72 -32.16 72 -24 72 C-24 66.72 -24 61.44 -24 56 C-21.36 56 -18.72 56 -16 56 C-16 45.44 -16 34.88 -16 24 C-10.72 24 -5.44 24 0 24 C0 16.08 0 8.16 0 0 Z " fill="#DC2E8A" transform="translate(344,376)"/>
<path d="M0 0 C2.64 0 5.28 0 8 0 C8 50.16 8 100.32 8 152 C5.36 152 2.72 152 0 152 C0 146.72 0 141.44 0 136 C-2.64 136 -5.28 136 -8 136 C-8 93.76 -8 51.52 -8 8 C-5.36 8 -2.72 8 0 8 C0 5.36 0 2.72 0 0 Z " fill="#A4A4A4" transform="translate(408,128)"/>
<path d="M0 0 C2.64 0 5.28 0 8 0 C8 2.64 8 5.28 8 8 C10.64 8 13.28 8 16 8 C16 50.24 16 92.48 16 136 C13.36 136 10.72 136 8 136 C8 141.28 8 146.56 8 152 C5.36 152 2.72 152 0 152 C0 101.84 0 51.68 0 0 Z " fill="#A4A4A4" transform="translate(96,128)"/>
<path d="M0 0 C15.84 0 31.68 0 48 0 C48 10.56 48 21.12 48 32 C32.16 32 16.32 32 0 32 C0 55.76 0 79.52 0 104 C-2.64 104 -5.28 104 -8 104 C-8 77.6 -8 51.2 -8 24 C-5.36 24 -2.72 24 0 24 C0 16.08 0 8.16 0 0 Z " fill="#D42F83" transform="translate(296,312)"/>
<path d="M0 0 C15.84 0 31.68 0 48 0 C48 7.92 48 15.84 48 24 C50.64 24 53.28 24 56 24 C56 50.4 56 76.8 56 104 C53.36 104 50.72 104 48 104 C48 80.24 48 56.48 48 32 C32.16 32 16.32 32 0 32 C0 21.44 0 10.88 0 0 Z " fill="#D42F83" transform="translate(168,312)"/>
<path d="M0 0 C21.12 0 42.24 0 64 0 C64 5.28 64 10.56 64 16 C48.16 16 32.32 16 16 16 C16 18.64 16 21.28 16 24 C13.69 24.33 11.38 24.66 9 25 C8.67 64.27 8.34 103.54 8 144 C5.36 144.33 2.72 144.66 0 145 C0 97.15 0 49.3 0 0 Z " fill="#181816" transform="translate(224,272)"/>
<path d="M0 0 C5.28 0 10.56 0 16 0 C16 10.56 16 21.12 16 32 C10.72 32 5.44 32 0 32 C0 39.92 0 47.84 0 56 C-2.64 56 -5.28 56 -8 56 C-8 58.64 -8 61.28 -8 64 C-10.64 64 -13.28 64 -16 64 C-16 66.64 -16 69.28 -16 72 C-18.64 72 -21.28 72 -24 72 C-24 77.28 -24 82.56 -24 88 C-26.64 88 -29.28 88 -32 88 C-32 69.52 -32 51.04 -32 32 C-29.36 32 -26.72 32 -24 32 C-24 29.36 -24 26.72 -24 24 C-21.36 24 -18.72 24 -16 24 C-16 21.36 -16 18.72 -16 16 C-13.36 16 -10.72 16 -8 16 C-8 13.36 -8 10.72 -8 8 C-5.36 8 -2.72 8 0 8 C0 5.36 0 2.72 0 0 Z " fill="#FFFCFD" transform="translate(328,120)"/>
<path d="M0 0 C2.64 0 5.28 0 8 0 C8 5.28 8 10.56 8 16 C13.28 16 18.56 16 24 16 C24 21.28 24 26.56 24 32 C21.36 32 18.72 32 16 32 C16 29.36 16 26.72 16 24 C11.05 24.33 6.1 24.66 1 25 C0.67 43.15 0.34 61.3 0 80 C5.28 80 10.56 80 16 80 C16 82.64 16 85.28 16 88 C29.2 88 42.4 88 56 88 C56 93.28 56 98.56 56 104 C34.88 104 13.76 104 -8 104 C-8 77.6 -8 51.2 -8 24 C-5.36 24 -2.72 24 0 24 C0 16.08 0 8.16 0 0 Z " fill="#161A16" transform="translate(232,136)"/>
<path d="M0 0 C5.28 0 10.56 0 16 0 C16 10.56 16 21.12 16 32 C10.72 32 5.44 32 0 32 C0 39.92 0 47.84 0 56 C-2.64 56 -5.28 56 -8 56 C-8 58.64 -8 61.28 -8 64 C-10.64 64 -13.28 64 -16 64 C-16 66.64 -16 69.28 -16 72 C-18.64 72 -21.28 72 -24 72 C-24 77.28 -24 82.56 -24 88 C-26.64 88 -29.28 88 -32 88 C-32 72.16 -32 56.32 -32 40 C-29.36 40 -26.72 40 -24 40 C-24 34.72 -24 29.44 -24 24 C-21.36 24 -18.72 24 -16 24 C-16 21.36 -16 18.72 -16 16 C-13.36 16 -10.72 16 -8 16 C-8 13.36 -8 10.72 -8 8 C-5.36 8 -2.72 8 0 8 C0 5.36 0 2.72 0 0 Z " fill="#FFFDFE" transform="translate(200,120)"/>
<path d="M0 0 C7.92 0 15.84 0 24 0 C24 18.48 24 36.96 24 56 C13.44 56 2.88 56 -8 56 C-8 50.72 -8 45.44 -8 40 C-10.64 40 -13.28 40 -16 40 C-16 37.36 -16 34.72 -16 32 C-10.72 32 -5.44 32 0 32 C0 26.72 0 21.44 0 16 C-2.64 16 -5.28 16 -8 16 C-8 13.36 -8 10.72 -8 8 C-5.36 8 -2.72 8 0 8 C0 5.36 0 2.72 0 0 Z " fill="#2A3129" transform="translate(136,232)"/>
<path d="M0 0 C7.92 0 15.84 0 24 0 C24 7.92 24 15.84 24 24 C29.28 24 34.56 24 40 24 C40 39.84 40 55.68 40 72 C37.36 72 34.72 72 32 72 C32 69.36 32 66.72 32 64 C29.36 64 26.72 64 24 64 C24 58.72 24 53.44 24 48 C21.36 48 18.72 48 16 48 C16 45.36 16 42.72 16 40 C13.36 40 10.72 40 8 40 C8 37.36 8 34.72 8 32 C10.64 32 13.28 32 16 32 C16 29.36 16 26.72 16 24 C10.72 24 5.44 24 0 24 C0 21.36 0 18.72 0 16 C-2.64 16 -5.28 16 -8 16 C-8 13.36 -8 10.72 -8 8 C-5.36 8 -2.72 8 0 8 C0 5.36 0 2.72 0 0 Z " fill="#272D26" transform="translate(136,392)"/>
<path d="M0 0 C2.64 0 5.28 0 8 0 C8 2.64 8 5.28 8 8 C10.64 8 13.28 8 16 8 C16 10.64 16 13.28 16 16 C18.64 16 21.28 16 24 16 C24 34.48 24 52.96 24 72 C18.72 72 13.44 72 8 72 C8 69.36 8 66.72 8 64 C5.36 64 2.72 64 0 64 C0 56.08 0 48.16 0 40 C2.64 40 5.28 40 8 40 C8 37.36 8 34.72 8 32 C10.64 32 13.28 32 16 32 C16 29.36 16 26.72 16 24 C10.72 24 5.44 24 0 24 C0 16.08 0 8.16 0 0 Z " fill="#252C24" transform="translate(128,96)"/>
<path d="M0 0 C5.28 0 10.56 0 16 0 C16 5.28 16 10.56 16 16 C18.64 16 21.28 16 24 16 C24 37.12 24 58.24 24 80 C21.36 80 18.72 80 16 80 C16 77.36 16 74.72 16 72 C13.36 72 10.72 72 8 72 C8 53.52 8 35.04 8 16 C5.36 16 2.72 16 0 16 C0 10.72 0 5.44 0 0 Z " fill="#737373" transform="translate(88,56)"/>
<path d="M0 0 C2.64 0 5.28 0 8 0 C8 5.28 8 10.56 8 16 C5.36 16 2.72 16 0 16 C0 34.48 0 52.96 0 72 C-2.64 72 -5.28 72 -8 72 C-8 74.64 -8 77.28 -8 80 C-10.64 80 -13.28 80 -16 80 C-16 58.88 -16 37.76 -16 16 C-13.36 16 -10.72 16 -8 16 C-8 13.36 -8 10.72 -8 8 C-5.36 8 -2.72 8 0 8 C0 5.36 0 2.72 0 0 Z " fill="#737373" transform="translate(416,56)"/>
<path d="M0 0 C2.64 0 5.28 0 8 0 C8 29.04 8 58.08 8 88 C5.36 88 2.72 88 0 88 C0 82.72 0 77.44 0 72 C-2.64 72 -5.28 72 -8 72 C-8 66.72 -8 61.44 -8 56 C-5.36 56 -2.72 56 0 56 C0 45.44 0 34.88 0 24 C-5.28 24 -10.56 24 -16 24 C-16 18.72 -16 13.44 -16 8 C-10.72 8 -5.44 8 0 8 C0 5.36 0 2.72 0 0 Z " fill="#2E332C" transform="translate(152,296)"/>
<path d="M0 0 C2.64 0 5.28 0 8 0 C8 44.88 8 89.76 8 136 C5.36 136 2.72 136 0 136 C0 91.12 0 46.24 0 0 Z " fill="#2E2E2B" transform="translate(280,288)"/>
<path d="M0 0 C2.64 0 5.28 0 8 0 C8 5.28 8 10.56 8 16 C10.64 16 13.28 16 16 16 C16 29.2 16 42.4 16 56 C13.36 56 10.72 56 8 56 C8 61.28 8 66.56 8 72 C5.36 72 2.72 72 0 72 C0 48.24 0 24.48 0 0 Z " fill="#737373" transform="translate(400,264)"/>
<path d="M0 0 C2.64 0 5.28 0 8 0 C8 18.48 8 36.96 8 56 C5.36 56 2.72 56 0 56 C0 61.28 0 66.56 0 72 C-2.64 72 -5.28 72 -8 72 C-8 53.52 -8 35.04 -8 16 C-5.36 16 -2.72 16 0 16 C0 10.72 0 5.44 0 0 Z " fill="#737373" transform="translate(104,264)"/>
<path d="M0 0 C5.28 0 10.56 0 16 0 C16 13.2 16 26.4 16 40 C13.36 40 10.72 40 8 40 C8 42.64 8 45.28 8 48 C5.36 48 2.72 48 0 48 C0 45.36 0 42.72 0 40 C-2.64 40 -5.28 40 -8 40 C-8 32.08 -8 24.16 -8 16 C-5.36 16 -2.72 16 0 16 C0 10.72 0 5.44 0 0 Z " fill="#252C24" transform="translate(136,176)"/>
<path d="M0 0 C5.28 0 10.56 0 16 0 C16 2.64 16 5.28 16 8 C18.64 8 21.28 8 24 8 C24 5.36 24 2.72 24 0 C31.92 0 39.84 0 48 0 C48 7.92 48 15.84 48 24 C45.36 24 42.72 24 40 24 C40 21.36 40 18.72 40 16 C34.72 16 29.44 16 24 16 C24 18.64 24 21.28 24 24 C21.36 24 18.72 24 16 24 C16 21.36 16 18.72 16 16 C10.72 16 5.44 16 0 16 C0 10.72 0 5.44 0 0 Z " fill="#111511" transform="translate(232,72)"/>
<path d="M0 0 C2.64 0 5.28 0 8 0 C8 29.04 8 58.08 8 88 C5.36 88 2.72 88 0 88 C0 58.96 0 29.92 0 0 Z " fill="#EF96CB" transform="translate(344,288)"/>
<path d="M0 0 C2.64 0 5.28 0 8 0 C8 26.4 8 52.8 8 80 C5.36 80 2.72 80 0 80 C0 53.6 0 27.2 0 0 Z " fill="#F197CC" transform="translate(160,288)"/>
<path d="M0 0 C10.56 0 21.12 0 32 0 C32 5.28 32 10.56 32 16 C29.36 16 26.72 16 24 16 C24 18.64 24 21.28 24 24 C18.72 24 13.44 24 8 24 C8 21.36 8 18.72 8 16 C5.36 16 2.72 16 0 16 C0 10.72 0 5.44 0 0 Z " fill="#2B352A" transform="translate(240,120)"/>
<path d="M0 0 C2.31 0 4.62 0 7 0 C7 26.4 7 52.8 7 80 C4.36 80 1.72 80 -1 80 C-1.02312376 69.71695462 -1.04091525 59.43391538 -1.05181217 49.15084934 C-1.05704093 44.3765172 -1.06413844 39.60220279 -1.07543945 34.82788086 C-1.0862686 30.22433738 -1.09227689 25.62081101 -1.09487724 21.01725578 C-1.09673144 19.25690377 -1.10035196 17.49655274 -1.10573006 15.73620796 C-1.11294086 13.27927723 -1.11399093 10.82241805 -1.11352539 8.36547852 C-1.11712067 7.63036545 -1.12071594 6.89525238 -1.12442017 6.13786316 C-1.11405216 1.11405216 -1.11405216 1.11405216 0 0 Z " fill="#F3EFF1" transform="translate(161,208)"/>
<path d="M0 0 C2.64 0 5.28 0 8 0 C8 21.12 8 42.24 8 64 C5.36 64 2.72 64 0 64 C0 42.88 0 21.76 0 0 Z " fill="#F095CA" transform="translate(288,272)"/>
<path d="M0 0 C2.64 0 5.28 0 8 0 C8 21.12 8 42.24 8 64 C5.36 64 2.72 64 0 64 C0 42.88 0 21.76 0 0 Z " fill="#F196CA" transform="translate(216,272)"/>
<path d="M0 0 C21.12 0 42.24 0 64 0 C64 2.64 64 5.28 64 8 C42.88 8 21.76 8 0 8 C0 5.36 0 2.72 0 0 Z " fill="#191417" transform="translate(224,272)"/>
<path d="M0 0 C21.12 0 42.24 0 64 0 C64 2.64 64 5.28 64 8 C42.88 8 21.76 8 0 8 C0 5.36 0 2.72 0 0 Z " fill="#1C1F1C" transform="translate(224,232)"/>
<path d="M0 0 C2.64 0 5.28 0 8 0 C8 21.12 8 42.24 8 64 C5.36 64 2.72 64 0 64 C0 42.88 0 21.76 0 0 Z " fill="#E7E7E7" transform="translate(408,160)"/>
<path d="M0 0 C5.28 0 10.56 0 16 0 C16 5.28 16 10.56 16 16 C10.72 16 5.44 16 0 16 C0 23.92 0 31.84 0 40 C-2.64 40 -5.28 40 -8 40 C-8 29.44 -8 18.88 -8 8 C-5.36 8 -2.72 8 0 8 C0 5.36 0 2.72 0 0 Z " fill="#FEE0F1" transform="translate(344,56)"/>
<path d="M0 0 C5.28 0 10.56 0 16 0 C16 2.64 16 5.28 16 8 C18.64 8 21.28 8 24 8 C24 18.56 24 29.12 24 40 C21.36 40 18.72 40 16 40 C16 32.08 16 24.16 16 16 C10.72 16 5.44 16 0 16 C0 10.72 0 5.44 0 0 Z " fill="#FEE0F1" transform="translate(152,56)"/>
<path d="M0 0 C2.64 0 5.28 0 8 0 C8 2.64 8 5.28 8 8 C21.2 8 34.4 8 48 8 C48 10.64 48 13.28 48 16 C32.16 16 16.32 16 0 16 C0 10.72 0 5.44 0 0 Z " fill="#F094CC" transform="translate(272,448)"/>
<path d="M0 0 C2.64 0 5.28 0 8 0 C8 5.28 8 10.56 8 16 C-7.84 16 -23.68 16 -40 16 C-40 13.36 -40 10.72 -40 8 C-26.8 8 -13.6 8 0 8 C0 5.36 0 2.72 0 0 Z " fill="#F198CD" transform="translate(232,448)"/>
<path d="M0 0 C5.28 0 10.56 0 16 0 C16 5.28 16 10.56 16 16 C18.64 16 21.28 16 24 16 C24 13.36 24 10.72 24 8 C26.64 8 29.28 8 32 8 C32 13.28 32 18.56 32 24 C24.08 24 16.16 24 8 24 C8 18.72 8 13.44 8 8 C5.36 8 2.72 8 0 8 C0 5.36 0 2.72 0 0 Z " fill="#242B23" transform="translate(120,264)"/>
<path d="M0 0 C2.64 0 5.28 0 8 0 C8 18.48 8 36.96 8 56 C5.36 56 2.72 56 0 56 C0 37.52 0 19.04 0 0 Z " fill="#30372F" transform="translate(280,168)"/>
<path d="M0 0 C2.64 0 5.28 0 8 0 C8 5.28 8 10.56 8 16 C13.28 16 18.56 16 24 16 C24 21.28 24 26.56 24 32 C21.36 32 18.72 32 16 32 C16 29.36 16 26.72 16 24 C10.72 24.33 5.44 24.66 0 25 C0 16.75 0 8.5 0 0 Z " fill="#0F130F" transform="translate(232,136)"/>
<path d="M0 0 C4.95 0 9.9 0 15 0 C15 10.56 15 21.12 15 32 C12.36 32 9.72 32 7 32 C7 26.72 7 21.44 7 16 C4.36 16 1.72 16 -1 16 C-1.02685095 13.52076199 -1.04676547 11.0418116 -1.0625 8.5625 C-1.07506836 7.50192383 -1.07506836 7.50192383 -1.08789062 6.41992188 C-1.09653588 4.61306441 -1.05220011 2.80612397 -1 1 C-0.67 0.67 -0.34 0.34 0 0 Z " fill="#273026" transform="translate(361,128)"/>
<path d="M0 0 C2.64 0 5.28 0 8 0 C8 13.2 8 26.4 8 40 C5.36 40.33 2.72 40.66 0 41 C0 27.47 0 13.94 0 0 Z " fill="#140D13" transform="translate(224,376)"/>
<path d="M0 0 C2.64 0 5.28 0 8 0 C8 13.2 8 26.4 8 40 C5.36 40 2.72 40 0 40 C0 26.8 0 13.6 0 0 Z " fill="#E7E7E7" transform="translate(96,176)"/>
<path d="M0 0 C2.64 0 5.28 0 8 0 C8 10.56 8 21.12 8 32 C5.36 32 2.72 32 0 32 C0 26.72 0 21.44 0 16 C-2.64 16 -5.28 16 -8 16 C-8 13.36 -8 10.72 -8 8 C-5.36 8 -2.72 8 0 8 C0 5.36 0 2.72 0 0 Z " fill="#1E221E" transform="translate(280,136)"/>
<path d="M0 0 C2.64 0 5.28 0 8 0 C8 13.2 8 26.4 8 40 C5.36 40 2.72 40 0 40 C0 26.8 0 13.6 0 0 Z " fill="#30372F" transform="translate(280,96)"/>
<path d="M0 0 C7.92 0 15.84 0 24 0 C24 2.64 24 5.28 24 8 C26.64 8 29.28 8 32 8 C32 10.64 32 13.28 32 16 C26.72 16 21.44 16 16 16 C16 13.36 16 10.72 16 8 C10.72 8 5.44 8 0 8 C0 5.36 0 2.72 0 0 Z " fill="#2C362B" transform="translate(240,48)"/>
<path d="M0 0 C2.64 0 5.28 0 8 0 C8 7.92 8 15.84 8 24 C5.36 24 2.72 24 0 24 C0 21.36 0 18.72 0 16 C-2.64 16 -5.28 16 -8 16 C-8 13.36 -8 10.72 -8 8 C-5.36 8 -2.72 8 0 8 C0 5.36 0 2.72 0 0 Z " fill="#2D2E2B" transform="translate(152,392)"/>
<path d="M0 0 C2.64 0 5.28 0 8 0 C8 10.56 8 21.12 8 32 C5.36 32 2.72 32 0 32 C0 21.44 0 10.88 0 0 Z " fill="#F2CEE4" transform="translate(344,256)"/>
<path d="M0 0 C2.64 0 5.28 0 8 0 C8 10.56 8 21.12 8 32 C5.36 32 2.72 32 0 32 C0 21.44 0 10.88 0 0 Z " fill="#DE4EB7" transform="translate(336,256)"/>
<path d="M0 0 C2.64 0 5.28 0 8 0 C8 10.56 8 21.12 8 32 C5.36 32 2.72 32 0 32 C0 21.44 0 10.88 0 0 Z " fill="#DE4EB7" transform="translate(168,256)"/>
<path d="M0 0 C2.64 0 5.28 0 8 0 C8 10.56 8 21.12 8 32 C5.36 32 2.72 32 0 32 C0 21.44 0 10.88 0 0 Z " fill="#F3CFE4" transform="translate(160,256)"/>
<path d="M0 0 C5.28 0 10.56 0 16 0 C16 2.64 16 5.28 16 8 C13.36 8 10.72 8 8 8 C8 13.28 8 18.56 8 24 C5.36 24 2.72 24 0 24 C0 16.08 0 8.16 0 0 Z " fill="#FFE1F1" transform="translate(296,184)"/>
<path d="M0 0 C5.28 0 10.56 0 16 0 C16 2.64 16 5.28 16 8 C13.36 8 10.72 8 8 8 C8 13.28 8 18.56 8 24 C5.36 24 2.72 24 0 24 C0 16.08 0 8.16 0 0 Z " fill="#FFE1F1" transform="translate(168,184)"/>
<path d="M0 0 C7.92 0 15.84 0 24 0 C24 2.64 24 5.28 24 8 C18.72 8 13.44 8 8 8 C8 10.64 8 13.28 8 16 C5.36 16 2.72 16 0 16 C0 10.72 0 5.44 0 0 Z " fill="#F3F1F2" transform="translate(144,48)"/>
<path d="M0 0 C10.56 0 21.12 0 32 0 C32 2.64 32 5.28 32 8 C21.44 8 10.88 8 0 8 C0 5.36 0 2.72 0 0 Z " fill="#293029" transform="translate(208,56)"/>
<path d="M0 0 C5.28 0 10.56 0 16 0 C16 2.64 16 5.28 16 8 C13.36 8 10.72 8 8 8 C8 10.64 8 13.28 8 16 C5.36 16 2.72 16 0 16 C0 10.72 0 5.44 0 0 Z " fill="#1D1C1C" transform="translate(336,448)"/>
<path d="M0 0 C7.92 0 15.84 0 24 0 C24 2.64 24 5.28 24 8 C16.08 8 8.16 8 0 8 C0 5.36 0 2.72 0 0 Z " fill="#242B23" transform="translate(352,432)"/>
<path d="M0 0 C2.64 0 5.28 0 8 0 C8 2.64 8 5.28 8 8 C10.64 8 13.28 8 16 8 C16 10.64 16 13.28 16 16 C10.72 16 5.44 16 0 16 C0 10.72 0 5.44 0 0 Z " fill="#211C1E" transform="translate(224,424)"/>
<path d="M0 0 C2.64 0 5.28 0 8 0 C8 7.92 8 15.84 8 24 C5.36 24 2.72 24 0 24 C0 16.08 0 8.16 0 0 Z " fill="#EF9BCC" transform="translate(288,416)"/>
<path d="M0 0 C2.64 0 5.28 0 8 0 C8 7.92 8 15.84 8 24 C5.36 24 2.72 24 0 24 C0 16.08 0 8.16 0 0 Z " fill="#EF9BCC" transform="translate(216,416)"/>
<path d="M0 0 C5.28 0 10.56 0 16 0 C16 2.64 16 5.28 16 8 C13.36 8 10.72 8 8 8 C8 10.64 8 13.28 8 16 C5.36 16 2.72 16 0 16 C0 10.72 0 5.44 0 0 Z " fill="#FFDFF1" transform="translate(328,152)"/>
<path d="M0 0 C5.28 0 10.56 0 16 0 C16 2.64 16 5.28 16 8 C13.36 8 10.72 8 8 8 C8 10.64 8 13.28 8 16 C5.36 16 2.72 16 0 16 C0 10.72 0 5.44 0 0 Z " fill="#FFDFF1" transform="translate(200,152)"/>
<path d="M0 0 C5.28 0 10.56 0 16 0 C16 5.28 16 10.56 16 16 C13.36 16 10.72 16 8 16 C8 13.36 8 10.72 8 8 C5.36 8 2.72 8 0 8 C0 5.36 0 2.72 0 0 Z " fill="#FFE2F2" transform="translate(200,72)"/>
<path d="M0 0 C2.64 0 5.28 0 8 0 C8 7.92 8 15.84 8 24 C5.36 24 2.72 24 0 24 C0 16.08 0 8.16 0 0 Z " fill="#252C24" transform="translate(408,40)"/>
<path d="M0 0 C2.64 0 5.28 0 8 0 C8 5.28 8 10.56 8 16 C5.36 16 2.72 16 0 16 C0 10.72 0 5.44 0 0 Z " fill="#F79ED2" transform="translate(272,448)"/>
<path d="M0 0 C2.64 0 5.28 0 8 0 C8 5.28 8 10.56 8 16 C5.36 16 2.72 16 0 16 C0 10.72 0 5.44 0 0 Z " fill="#30322D" transform="translate(264,448)"/>
<path d="M0 0 C2.64 0 5.28 0 8 0 C8 5.28 8 10.56 8 16 C5.36 16 2.72 16 0 16 C0 10.72 0 5.44 0 0 Z " fill="#F79ED2" transform="translate(232,448)"/>
<path d="M0 0 C2.64 0 5.28 0 8 0 C8 5.28 8 10.56 8 16 C5.36 16 2.72 16 0 16 C0 10.72 0 5.44 0 0 Z " fill="#343532" transform="translate(168,432)"/>
<path d="M0 0 C5.28 0 10.56 0 16 0 C16 2.64 16 5.28 16 8 C10.72 8 5.44 8 0 8 C0 5.36 0 2.72 0 0 Z " fill="#181C17" transform="translate(336,424)"/>
<path d="M0 0 C2.64 0 5.28 0 8 0 C8 5.28 8 10.56 8 16 C5.36 16 2.72 16 0 16 C0 10.72 0 5.44 0 0 Z " fill="#F2ABD1" transform="translate(288,272)"/>
<path d="M0 0 C2.64 0 5.28 0 8 0 C8 5.28 8 10.56 8 16 C5.36 16 2.72 16 0 16 C0 10.72 0 5.44 0 0 Z " fill="#F2ABD0" transform="translate(216,272)"/>
<path d="M0 0 C5.28 0 10.56 0 16 0 C16 2.64 16 5.28 16 8 C10.72 8 5.44 8 0 8 C0 5.36 0 2.72 0 0 Z " fill="#2C362B" transform="translate(248,184)"/>
<path d="M0 0 C2.64 0 5.28 0 8 0 C8 5.28 8 10.56 8 16 C5.36 16 2.72 16 0 16 C0 10.72 0 5.44 0 0 Z " fill="#FFD6ED" transform="translate(312,56)"/>
<path d="M0 0 C2.64 0 5.28 0 8 0 C8 5.28 8 10.56 8 16 C5.36 16 2.72 16 0 16 C0 10.72 0 5.44 0 0 Z " fill="#FEEAF5" transform="translate(304,56)"/>
<path d="M0 0 C5.28 0 10.56 0 16 0 C16 2.64 16 5.28 16 8 C10.72 8 5.44 8 0 8 C0 5.36 0 2.72 0 0 Z " fill="#F3F2F2" transform="translate(288,64)"/>
<path d="M0 0 C2.64 0 5.28 0 8 0 C8 5.28 8 10.56 8 16 C5.36 16 2.72 16 0 16 C0 10.72 0 5.44 0 0 Z " fill="#FFD6ED" transform="translate(192,56)"/>
<path d="M0 0 C5.28 0 10.56 0 16 0 C16 2.64 16 5.28 16 8 C10.72 8 5.44 8 0 8 C0 5.36 0 2.72 0 0 Z " fill="#3A4039" transform="translate(288,56)"/>
<path d="M0 0 C5.28 0 10.56 0 16 0 C16 2.64 16 5.28 16 8 C10.72 8 5.44 8 0 8 C0 5.36 0 2.72 0 0 Z " fill="#FFDBEF" transform="translate(152,56)"/>
<path d="M0 0 C2.64 0 5.28 0 8 0 C8 5.28 8 10.56 8 16 C5.36 16 2.72 16 0 16 C0 10.72 0 5.44 0 0 Z " fill="#F9F8F8" transform="translate(360,48)"/>
<path d="M0 0 C2.64 0 5.28 0 8 0 C8 5.28 8 10.56 8 16 C5.36 16 2.72 16 0 16 C0 10.72 0 5.44 0 0 Z " fill="#F9F8F9" transform="translate(144,48)"/>
<path d="M0 0 C2.64 0 5.28 0 8 0 C8 5.28 8 10.56 8 16 C5.36 16 2.72 16 0 16 C0 10.72 0 5.44 0 0 Z " fill="#252C24" transform="translate(136,48)"/>
<path d="M0 0 C2.64 0 5.28 0 8 0 C8 2.64 8 5.28 8 8 C5.36 8 2.72 8 0 8 C0 5.36 0 2.72 0 0 Z " fill="#F3A2D0" transform="translate(304,456)"/>
<path d="M0 0 C2.64 0 5.28 0 8 0 C8 2.64 8 5.28 8 8 C5.36 8 2.72 8 0 8 C0 5.36 0 2.72 0 0 Z " fill="#F093CC" transform="translate(192,456)"/>
<path d="M0 0 C2.64 0 5.28 0 8 0 C8 2.64 8 5.28 8 8 C5.36 8 2.72 8 0 8 C0 5.36 0 2.72 0 0 Z " fill="#E386C1" transform="translate(280,440)"/>
<path d="M0 0 C2.64 0 5.28 0 8 0 C8 2.64 8 5.28 8 8 C5.36 8 2.72 8 0 8 C0 5.36 0 2.72 0 0 Z " fill="#E386C1" transform="translate(224,440)"/>
<path d="M0 0 C2.64 0 5.28 0 8 0 C8 2.64 8 5.28 8 8 C5.36 8 2.72 8 0 8 C0 5.36 0 2.72 0 0 Z " fill="#0D100D" transform="translate(232,432)"/>
<path d="M0 0 C2.64 0 5.28 0 8 0 C8 2.64 8 5.28 8 8 C5.36 8 2.72 8 0 8 C0 5.36 0 2.72 0 0 Z " fill="#0A0C0A" transform="translate(224,424)"/>
<path d="M0 0 C2.64 0 5.28 0 8 0 C8 2.64 8 5.28 8 8 C5.36 8 2.72 8 0 8 C0 5.36 0 2.72 0 0 Z " fill="#242B23" transform="translate(168,424)"/>
<path d="M0 0 C2.64 0 5.28 0 8 0 C8 2.64 8 5.28 8 8 C5.36 8 2.72 8 0 8 C0 5.36 0 2.72 0 0 Z " fill="#EB8FC8" transform="translate(288,416)"/>
<path d="M0 0 C2.64 0 5.28 0 8 0 C8 2.64 8 5.28 8 8 C5.36 8 2.72 8 0 8 C0 5.36 0 2.72 0 0 Z " fill="#EB90C8" transform="translate(216,416)"/>
<path d="M0 0 C2.64 0 5.28 0 8 0 C8 2.64 8 5.28 8 8 C5.36 8 2.72 8 0 8 C0 5.36 0 2.72 0 0 Z " fill="#332930" transform="translate(168,416)"/>
<path d="M0 0 C2.64 0 5.28 0 8 0 C8 2.64 8 5.28 8 8 C5.36 8 2.72 8 0 8 C0 5.36 0 2.72 0 0 Z " fill="#1C171A" transform="translate(152,384)"/>
<path d="M0 0 C2.64 0 5.28 0 8 0 C8 2.64 8 5.28 8 8 C5.36 8 2.72 8 0 8 C0 5.36 0 2.72 0 0 Z " fill="#373D34" transform="translate(152,352)"/>
<path d="M0 0 C2.64 0 5.28 0 8 0 C8 2.64 8 5.28 8 8 C5.36 8 2.72 8 0 8 C0 5.36 0 2.72 0 0 Z " fill="#F4A1CE" transform="translate(288,320)"/>
<path d="M0 0 C2.64 0 5.28 0 8 0 C8 2.64 8 5.28 8 8 C5.36 8 2.72 8 0 8 C0 5.36 0 2.72 0 0 Z " fill="#E04EB7" transform="translate(336,296)"/>
<path d="M0 0 C2.64 0 5.28 0 8 0 C8 2.64 8 5.28 8 8 C5.36 8 2.72 8 0 8 C0 5.36 0 2.72 0 0 Z " fill="#DF4EB6" transform="translate(296,296)"/>
<path d="M0 0 C2.64 0 5.28 0 8 0 C8 2.64 8 5.28 8 8 C5.36 8 2.72 8 0 8 C0 5.36 0 2.72 0 0 Z " fill="#DF4EB6" transform="translate(208,296)"/>
<path d="M0 0 C2.64 0 5.28 0 8 0 C8 2.64 8 5.28 8 8 C5.36 8 2.72 8 0 8 C0 5.36 0 2.72 0 0 Z " fill="#E04EB7" transform="translate(168,296)"/>
<path d="M0 0 C2.64 0 5.28 0 8 0 C8 2.64 8 5.28 8 8 C5.36 8 2.72 8 0 8 C0 5.36 0 2.72 0 0 Z " fill="#1E1E1C" transform="translate(152,288)"/>
<path d="M0 0 C2.64 0 5.28 0 8 0 C8 2.64 8 5.28 8 8 C5.36 8 2.72 8 0 8 C0 5.36 0 2.72 0 0 Z " fill="#DA51B6" transform="translate(296,272)"/>
<path d="M0 0 C2.64 0 5.28 0 8 0 C8 2.64 8 5.28 8 8 C5.36 8 2.72 8 0 8 C0 5.36 0 2.72 0 0 Z " fill="#F2D4E5" transform="translate(288,272)"/>
<path d="M0 0 C2.64 0 5.28 0 8 0 C8 2.64 8 5.28 8 8 C5.36 8 2.72 8 0 8 C0 5.36 0 2.72 0 0 Z " fill="#262023" transform="translate(280,272)"/>
<path d="M0 0 C2.64 0 5.28 0 8 0 C8 2.64 8 5.28 8 8 C5.36 8 2.72 8 0 8 C0 5.36 0 2.72 0 0 Z " fill="#292626" transform="translate(240,272)"/>
<path d="M0 0 C2.64 0 5.28 0 8 0 C8 2.64 8 5.28 8 8 C5.36 8 2.72 8 0 8 C0 5.36 0 2.72 0 0 Z " fill="#211A1E" transform="translate(224,272)"/>
<path d="M0 0 C2.64 0 5.28 0 8 0 C8 2.64 8 5.28 8 8 C5.36 8 2.72 8 0 8 C0 5.36 0 2.72 0 0 Z " fill="#F2D4E5" transform="translate(216,272)"/>
<path d="M0 0 C2.64 0 5.28 0 8 0 C8 2.64 8 5.28 8 8 C5.36 8 2.72 8 0 8 C0 5.36 0 2.72 0 0 Z " fill="#DA51B6" transform="translate(208,272)"/>
<path d="M0 0 C2.64 0 5.28 0 8 0 C8 2.64 8 5.28 8 8 C5.36 8 2.72 8 0 8 C0 5.36 0 2.72 0 0 Z " fill="#D233AB" transform="translate(328,264)"/>
<path d="M0 0 C2.64 0 5.28 0 8 0 C8 2.64 8 5.28 8 8 C5.36 8 2.72 8 0 8 C0 5.36 0 2.72 0 0 Z " fill="#D233AB" transform="translate(176,264)"/>
<path d="M0 0 C2.64 0 5.28 0 8 0 C8 2.64 8 5.28 8 8 C5.36 8 2.72 8 0 8 C0 5.36 0 2.72 0 0 Z " fill="#D74DB3" transform="translate(304,256)"/>
<path d="M0 0 C2.64 0 5.28 0 8 0 C8 2.64 8 5.28 8 8 C5.36 8 2.72 8 0 8 C0 5.36 0 2.72 0 0 Z " fill="#D74DB3" transform="translate(200,256)"/>
<path d="M0 0 C2.64 0 5.28 0 8 0 C8 2.64 8 5.28 8 8 C5.36 8 2.72 8 0 8 C0 5.36 0 2.72 0 0 Z " fill="#FEE3F1" transform="translate(288,240)"/>
<path d="M0 0 C2.64 0 5.28 0 8 0 C8 2.64 8 5.28 8 8 C5.36 8 2.72 8 0 8 C0 5.36 0 2.72 0 0 Z " fill="#FEE3F1" transform="translate(216,240)"/>
<path d="M0 0 C2.64 0 5.28 0 8 0 C8 2.64 8 5.28 8 8 C5.36 8 2.72 8 0 8 C0 5.36 0 2.72 0 0 Z " fill="#242923" transform="translate(128,240)"/>
<path d="M0 0 C2.64 0 5.28 0 8 0 C8 2.64 8 5.28 8 8 C5.36 8 2.72 8 0 8 C0 5.36 0 2.72 0 0 Z " fill="#282C28" transform="translate(280,232)"/>
<path d="M0 0 C2.64 0 5.28 0 8 0 C8 2.64 8 5.28 8 8 C5.36 8 2.72 8 0 8 C0 5.36 0 2.72 0 0 Z " fill="#232523" transform="translate(224,232)"/>
<path d="M0 0 C2.64 0 5.28 0 8 0 C8 2.64 8 5.28 8 8 C5.36 8 2.72 8 0 8 C0 5.36 0 2.72 0 0 Z " fill="#1E221E" transform="translate(152,224)"/>
<path d="M0 0 C2.64 0 5.28 0 8 0 C8 2.64 8 5.28 8 8 C5.36 8 2.72 8 0 8 C0 5.36 0 2.72 0 0 Z " fill="#161816" transform="translate(224,216)"/>
<path d="M0 0 C2.64 0 5.28 0 8 0 C8 2.64 8 5.28 8 8 C5.36 8 2.72 8 0 8 C0 5.36 0 2.72 0 0 Z " fill="#2C362B" transform="translate(136,200)"/>
<path d="M0 0 C2.64 0 5.28 0 8 0 C8 2.64 8 5.28 8 8 C5.36 8 2.72 8 0 8 C0 5.36 0 2.72 0 0 Z " fill="#FFD6EC" transform="translate(304,184)"/>
<path d="M0 0 C2.64 0 5.28 0 8 0 C8 2.64 8 5.28 8 8 C5.36 8 2.72 8 0 8 C0 5.36 0 2.72 0 0 Z " fill="#FFD6EC" transform="translate(176,184)"/>
<path d="M0 0 C2.64 0 5.28 0 8 0 C8 2.64 8 5.28 8 8 C5.36 8 2.72 8 0 8 C0 5.36 0 2.72 0 0 Z " fill="#FF95CC" transform="translate(328,176)"/>
<path d="M0 0 C2.64 0 5.28 0 8 0 C8 2.64 8 5.28 8 8 C5.36 8 2.72 8 0 8 C0 5.36 0 2.72 0 0 Z " fill="#FFD7EC" transform="translate(312,176)"/>
<path d="M0 0 C2.64 0 5.28 0 8 0 C8 2.64 8 5.28 8 8 C5.36 8 2.72 8 0 8 C0 5.36 0 2.72 0 0 Z " fill="#FF95CC" transform="translate(200,176)"/>
<path d="M0 0 C2.64 0 5.28 0 8 0 C8 2.64 8 5.28 8 8 C5.36 8 2.72 8 0 8 C0 5.36 0 2.72 0 0 Z " fill="#FFD7EC" transform="translate(184,176)"/>
<path d="M0 0 C2.64 0 5.28 0 8 0 C8 2.64 8 5.28 8 8 C5.36 8 2.72 8 0 8 C0 5.36 0 2.72 0 0 Z " fill="#FFD7EC" transform="translate(320,168)"/>
<path d="M0 0 C2.64 0 5.28 0 8 0 C8 2.64 8 5.28 8 8 C5.36 8 2.72 8 0 8 C0 5.36 0 2.72 0 0 Z " fill="#FFD7EC" transform="translate(192,168)"/>
<path d="M0 0 C2.64 0 5.28 0 8 0 C8 2.64 8 5.28 8 8 C5.36 8 2.72 8 0 8 C0 5.36 0 2.72 0 0 Z " fill="#FFEAF5" transform="translate(184,168)"/>
<path d="M0 0 C2.64 0 5.28 0 8 0 C8 2.64 8 5.28 8 8 C5.36 8 2.72 8 0 8 C0 5.36 0 2.72 0 0 Z " fill="#FFAEDA" transform="translate(336,160)"/>
<path d="M0 0 C2.64 0 5.28 0 8 0 C8 2.64 8 5.28 8 8 C5.36 8 2.72 8 0 8 C0 5.36 0 2.72 0 0 Z " fill="#FFCFE9" transform="translate(328,160)"/>
<path d="M0 0 C2.64 0 5.28 0 8 0 C8 2.64 8 5.28 8 8 C5.36 8 2.72 8 0 8 C0 5.36 0 2.72 0 0 Z " fill="#FFEAF5" transform="translate(320,160)"/>
<path d="M0 0 C2.64 0 5.28 0 8 0 C8 2.64 8 5.28 8 8 C5.36 8 2.72 8 0 8 C0 5.36 0 2.72 0 0 Z " fill="#FFAEDA" transform="translate(208,160)"/>
<path d="M0 0 C2.64 0 5.28 0 8 0 C8 2.64 8 5.28 8 8 C5.36 8 2.72 8 0 8 C0 5.36 0 2.72 0 0 Z " fill="#FFCFE9" transform="translate(200,160)"/>
<path d="M0 0 C2.64 0 5.28 0 8 0 C8 2.64 8 5.28 8 8 C5.36 8 2.72 8 0 8 C0 5.36 0 2.72 0 0 Z " fill="#FFEAF5" transform="translate(192,160)"/>
<path d="M0 0 C2.64 0 5.28 0 8 0 C8 2.64 8 5.28 8 8 C5.36 8 2.72 8 0 8 C0 5.36 0 2.72 0 0 Z " fill="#FFE2F2" transform="translate(296,152)"/>
<path d="M0 0 C2.64 0 5.28 0 8 0 C8 2.64 8 5.28 8 8 C5.36 8 2.72 8 0 8 C0 5.36 0 2.72 0 0 Z " fill="#FFE2F2" transform="translate(168,152)"/>
<path d="M0 0 C2.64 0 5.28 0 8 0 C8 2.64 8 5.28 8 8 C5.36 8 2.72 8 0 8 C0 5.36 0 2.72 0 0 Z " fill="#FFE8F6" transform="translate(336,144)"/>
<path d="M0 0 C2.64 0 5.28 0 8 0 C8 2.64 8 5.28 8 8 C5.36 8 2.72 8 0 8 C0 5.36 0 2.72 0 0 Z " fill="#FFD6EC" transform="translate(304,144)"/>
<path d="M0 0 C2.64 0 5.28 0 8 0 C8 2.64 8 5.28 8 8 C5.36 8 2.72 8 0 8 C0 5.36 0 2.72 0 0 Z " fill="#FFA9D8" transform="translate(296,144)"/>
<path d="M0 0 C2.64 0 5.28 0 8 0 C8 2.64 8 5.28 8 8 C5.36 8 2.72 8 0 8 C0 5.36 0 2.72 0 0 Z " fill="#121612" transform="translate(272,144)"/>
<path d="M0 0 C2.64 0 5.28 0 8 0 C8 2.64 8 5.28 8 8 C5.36 8 2.72 8 0 8 C0 5.36 0 2.72 0 0 Z " fill="#FFE8F6" transform="translate(208,144)"/>
<path d="M0 0 C2.64 0 5.28 0 8 0 C8 2.64 8 5.28 8 8 C5.36 8 2.72 8 0 8 C0 5.36 0 2.72 0 0 Z " fill="#FFD6EC" transform="translate(176,144)"/>
<path d="M0 0 C2.64 0 5.28 0 8 0 C8 2.64 8 5.28 8 8 C5.36 8 2.72 8 0 8 C0 5.36 0 2.72 0 0 Z " fill="#FFA9D8" transform="translate(168,144)"/>
<path d="M0 0 C2.64 0 5.28 0 8 0 C8 2.64 8 5.28 8 8 C5.36 8 2.72 8 0 8 C0 5.36 0 2.72 0 0 Z " fill="#FFDDEF" transform="translate(312,136)"/>
<path d="M0 0 C2.64 0 5.28 0 8 0 C8 2.64 8 5.28 8 8 C5.36 8 2.72 8 0 8 C0 5.36 0 2.72 0 0 Z " fill="#FFDDEF" transform="translate(184,136)"/>
<path d="M0 0 C2.64 0 5.28 0 8 0 C8 2.64 8 5.28 8 8 C5.36 8 2.72 8 0 8 C0 5.36 0 2.72 0 0 Z " fill="#FFDDEF" transform="translate(320,128)"/>
<path d="M0 0 C2.64 0 5.28 0 8 0 C8 2.64 8 5.28 8 8 C5.36 8 2.72 8 0 8 C0 5.36 0 2.72 0 0 Z " fill="#FFDDEF" transform="translate(192,128)"/>
<path d="M0 0 C2.64 0 5.28 0 8 0 C8 2.64 8 5.28 8 8 C5.36 8 2.72 8 0 8 C0 5.36 0 2.72 0 0 Z " fill="#FFDDF0" transform="translate(328,120)"/>
<path d="M0 0 C2.64 0 5.28 0 8 0 C8 2.64 8 5.28 8 8 C5.36 8 2.72 8 0 8 C0 5.36 0 2.72 0 0 Z " fill="#FFDDF0" transform="translate(200,120)"/>
<path d="M0 0 C2.64 0 5.28 0 8 0 C8 2.64 8 5.28 8 8 C5.36 8 2.72 8 0 8 C0 5.36 0 2.72 0 0 Z " fill="#FFDDEF" transform="translate(336,112)"/>
<path d="M0 0 C2.64 0 5.28 0 8 0 C8 2.64 8 5.28 8 8 C5.36 8 2.72 8 0 8 C0 5.36 0 2.72 0 0 Z " fill="#FFDDEF" transform="translate(208,112)"/>
<path d="M0 0 C2.64 0 5.28 0 8 0 C8 2.64 8 5.28 8 8 C5.36 8 2.72 8 0 8 C0 5.36 0 2.72 0 0 Z " fill="#FFABD8" transform="translate(208,88)"/>
<path d="M0 0 C2.64 0 5.28 0 8 0 C8 2.64 8 5.28 8 8 C5.36 8 2.72 8 0 8 C0 5.36 0 2.72 0 0 Z " fill="#FFDAEE" transform="translate(296,80)"/>
<path d="M0 0 C2.64 0 5.28 0 8 0 C8 2.64 8 5.28 8 8 C5.36 8 2.72 8 0 8 C0 5.36 0 2.72 0 0 Z " fill="#2A2E29" transform="translate(352,72)"/>
<path d="M0 0 C2.64 0 5.28 0 8 0 C8 2.64 8 5.28 8 8 C5.36 8 2.72 8 0 8 C0 5.36 0 2.72 0 0 Z " fill="#FFD7ED" transform="translate(304,72)"/>
<path d="M0 0 C2.64 0 5.28 0 8 0 C8 2.64 8 5.28 8 8 C5.36 8 2.72 8 0 8 C0 5.36 0 2.72 0 0 Z " fill="#FFFEFE" transform="translate(288,72)"/>
<path d="M0 0 C2.64 0 5.28 0 8 0 C8 2.64 8 5.28 8 8 C5.36 8 2.72 8 0 8 C0 5.36 0 2.72 0 0 Z " fill="#FFFEFE" transform="translate(216,72)"/>
<path d="M0 0 C2.64 0 5.28 0 8 0 C8 2.64 8 5.28 8 8 C5.36 8 2.72 8 0 8 C0 5.36 0 2.72 0 0 Z " fill="#FFD7ED" transform="translate(200,72)"/>
<path d="M0 0 C2.64 0 5.28 0 8 0 C8 2.64 8 5.28 8 8 C5.36 8 2.72 8 0 8 C0 5.36 0 2.72 0 0 Z " fill="#393F38" transform="translate(152,72)"/>
<path d="M0 0 C2.64 0 5.28 0 8 0 C8 2.64 8 5.28 8 8 C5.36 8 2.72 8 0 8 C0 5.36 0 2.72 0 0 Z " fill="#4C474E" transform="translate(104,72)"/>
<path d="M0 0 C2.64 0 5.28 0 8 0 C8 2.64 8 5.28 8 8 C5.36 8 2.72 8 0 8 C0 5.36 0 2.72 0 0 Z " fill="#2B2F2A" transform="translate(360,64)"/>
<path d="M0 0 C2.64 0 5.28 0 8 0 C8 2.64 8 5.28 8 8 C5.36 8 2.72 8 0 8 C0 5.36 0 2.72 0 0 Z " fill="#E9E5E7" transform="translate(352,64)"/>
<path d="M0 0 C2.64 0 5.28 0 8 0 C8 2.64 8 5.28 8 8 C5.36 8 2.72 8 0 8 C0 5.36 0 2.72 0 0 Z " fill="#FFD1EA" transform="translate(336,64)"/>
<path d="M0 0 C2.64 0 5.28 0 8 0 C8 2.64 8 5.28 8 8 C5.36 8 2.72 8 0 8 C0 5.36 0 2.72 0 0 Z " fill="#E9E9E8" transform="translate(288,64)"/>
<path d="M0 0 C2.64 0 5.28 0 8 0 C8 2.64 8 5.28 8 8 C5.36 8 2.72 8 0 8 C0 5.36 0 2.72 0 0 Z " fill="#2F362E" transform="translate(280,64)"/>
<path d="M0 0 C2.64 0 5.28 0 8 0 C8 2.64 8 5.28 8 8 C5.36 8 2.72 8 0 8 C0 5.36 0 2.72 0 0 Z " fill="#E7E7E7" transform="translate(216,64)"/>
<path d="M0 0 C2.64 0 5.28 0 8 0 C8 2.64 8 5.28 8 8 C5.36 8 2.72 8 0 8 C0 5.36 0 2.72 0 0 Z " fill="#F3F1F2" transform="translate(208,64)"/>
<path d="M0 0 C2.64 0 5.28 0 8 0 C8 2.64 8 5.28 8 8 C5.36 8 2.72 8 0 8 C0 5.36 0 2.72 0 0 Z " fill="#FFD1EA" transform="translate(168,64)"/>
<path d="M0 0 C2.64 0 5.28 0 8 0 C8 2.64 8 5.28 8 8 C5.36 8 2.72 8 0 8 C0 5.36 0 2.72 0 0 Z " fill="#EAE6E8" transform="translate(152,64)"/>
<path d="M0 0 C2.64 0 5.28 0 8 0 C8 2.64 8 5.28 8 8 C5.36 8 2.72 8 0 8 C0 5.36 0 2.72 0 0 Z " fill="#393F38" transform="translate(144,64)"/>
<path d="M0 0 C2.64 0 5.28 0 8 0 C8 2.64 8 5.28 8 8 C5.36 8 2.72 8 0 8 C0 5.36 0 2.72 0 0 Z " fill="#4C474E" transform="translate(408,56)"/>
<path d="M0 0 C2.64 0 5.28 0 8 0 C8 2.64 8 5.28 8 8 C5.36 8 2.72 8 0 8 C0 5.36 0 2.72 0 0 Z " fill="#FFE3F3" transform="translate(312,56)"/>
<path d="M0 0 C2.64 0 5.28 0 8 0 C8 2.64 8 5.28 8 8 C5.36 8 2.72 8 0 8 C0 5.36 0 2.72 0 0 Z " fill="#FFFFFF" transform="translate(304,56)"/>
<path d="M0 0 C2.64 0 5.28 0 8 0 C8 2.64 8 5.28 8 8 C5.36 8 2.72 8 0 8 C0 5.36 0 2.72 0 0 Z " fill="#2F362E" transform="translate(288,56)"/>
<path d="M0 0 C2.64 0 5.28 0 8 0 C8 2.64 8 5.28 8 8 C5.36 8 2.72 8 0 8 C0 5.36 0 2.72 0 0 Z " fill="#FFFFFF" transform="translate(200,56)"/>
<path d="M0 0 C2.64 0 5.28 0 8 0 C8 2.64 8 5.28 8 8 C5.36 8 2.72 8 0 8 C0 5.36 0 2.72 0 0 Z " fill="#FFE3F3" transform="translate(192,56)"/>
<path d="M0 0 C2.64 0 5.28 0 8 0 C8 2.64 8 5.28 8 8 C5.36 8 2.72 8 0 8 C0 5.36 0 2.72 0 0 Z " fill="#FFAEDB" transform="translate(168,56)"/>
<path d="M0 0 C2.64 0 5.28 0 8 0 C8 2.64 8 5.28 8 8 C5.36 8 2.72 8 0 8 C0 5.36 0 2.72 0 0 Z " fill="#FFE8F5" transform="translate(152,56)"/>
<path d="M0 0 C2.64 0 5.28 0 8 0 C8 2.64 8 5.28 8 8 C5.36 8 2.72 8 0 8 C0 5.36 0 2.72 0 0 Z " fill="#4C474E" transform="translate(96,56)"/>
<path d="M0 0 C2.64 0 5.28 0 8 0 C8 2.64 8 5.28 8 8 C5.36 8 2.72 8 0 8 C0 5.36 0 2.72 0 0 Z " fill="#E8E8E8" transform="translate(304,48)"/>
<path d="M0 0 C2.64 0 5.28 0 8 0 C8 2.64 8 5.28 8 8 C5.36 8 2.72 8 0 8 C0 5.36 0 2.72 0 0 Z " fill="#E6E7E6" transform="translate(200,48)"/>
</svg>
