<?xml version="1.0" encoding="UTF-8"?>
<svg version="1.1" xmlns="http://www.w3.org/2000/svg" width="256" height="256">
<path d="M0 0 C2.64 0 5.28 0 8 0 C8 0.66 8 1.32 8 2 C8.66 2 9.32 2 10 2 C10.33 8.6 10.66 15.2 11 22 C12.65 20.35 14.3 18.7 16 17 C16.66 17 17.32 17 18 17 C18 12.05 18 7.1 18 2 C18.66 2 19.32 2 20 2 C20 1.34 20 0.68 20 0 C22.64 0 25.28 0 28 0 C27.67 0.99 27.34 1.98 27 3 C26.88677175 4.4264314 26.82404524 5.8572249 26.79467773 7.2878418 C26.77473251 8.14850754 26.75478729 9.00917328 26.73423767 9.8959198 C26.70916893 11.28355278 26.70916893 11.28355278 26.68359375 12.69921875 C26.66281265 13.64940384 26.64203156 14.59958893 26.62062073 15.5785675 C26.55521948 18.61480456 26.49628396 21.65112831 26.4375 24.6875 C26.39430583 26.74545169 26.35069124 28.80339459 26.30664062 30.86132812 C26.19954769 35.90746316 26.09825354 40.95368543 26 46 C25.34 46 24.68 46 24 46 C24 47.98 24 49.96 24 52 C21.36 52 18.72 52 16 52 C16.33 51.01 16.66 50.02 17 49 C17.08209792 47.22686149 17.10746294 45.45079225 17.09765625 43.67578125 C17.09443359 42.64775391 17.09121094 41.61972656 17.08789062 40.56054688 C17.07951172 39.48869141 17.07113281 38.41683594 17.0625 37.3125 C17.05798828 36.22904297 17.05347656 35.14558594 17.04882812 34.02929688 C17.03703743 31.35280915 17.02058063 28.67643223 17 26 C16.21625 26.825 15.4325 27.65 14.625 28.5 C12 31 12 31 10 31 C10.14075205 33.93782469 10.2873838 36.87515171 10.4375 39.8125 C10.47681641 40.64587891 10.51613281 41.47925781 10.55664062 42.33789062 C10.61948242 43.54155273 10.61948242 43.54155273 10.68359375 44.76953125 C10.72025146 45.50792236 10.75690918 46.24631348 10.79467773 47.00708008 C10.94842141 49.207495 10.94842141 49.207495 12 52 C9.36 52 6.72 52 4 52 C4 50.02 4 48.04 4 46 C3.34 46 2.68 46 2 46 C1.97494385 44.71311279 1.9498877 43.42622559 1.92407227 42.1003418 C1.82998428 37.33119546 1.72976687 32.56219429 1.62768555 27.79321289 C1.58434197 25.72814324 1.54266648 23.66303788 1.50268555 21.59790039 C1.44496917 18.63156365 1.38127849 15.66540655 1.31640625 12.69921875 C1.29969376 11.7741301 1.28298126 10.84904144 1.26576233 9.8959198 C1.24581711 9.03525406 1.22587189 8.17458832 1.20532227 7.2878418 C1.18977798 6.53061325 1.1742337 5.7733847 1.15821838 4.99320984 C1.06367677 2.79075185 1.06367677 2.79075185 0 0 Z " fill="#FFFFFF" transform="translate(204,95)"/>
<path d="M0 0 C2.3984375 0.6171875 2.3984375 0.6171875 4.3984375 2.6171875 C4.67018127 4.62181091 4.67018127 4.62181091 4.70141602 7.11108398 C4.71805801 8.04222519 4.73470001 8.97336639 4.75184631 9.932724 C4.76026047 10.94105789 4.76867462 11.94939178 4.77734375 12.98828125 C4.79433823 14.02155045 4.8113327 15.05481964 4.82884216 16.11940002 C4.88210723 19.43109989 4.92231825 22.74278694 4.9609375 26.0546875 C5.0048557 29.36295185 5.05158299 32.67111843 5.10374451 35.97926331 C5.13570558 38.04033606 5.16259443 40.10149481 5.18397522 42.16270447 C5.19746506 43.09699783 5.2109549 44.0312912 5.22485352 44.99389648 C5.23436539 45.81615219 5.24387726 46.6384079 5.25367737 47.48558044 C5.3215433 49.80520964 5.3215433 49.80520964 6.3984375 52.6171875 C3.0984375 52.6171875 -0.2015625 52.6171875 -3.6015625 52.6171875 C-3.6015625 38.0971875 -3.6015625 23.5771875 -3.6015625 8.6171875 C-5.5815625 8.6171875 -7.5615625 8.6171875 -9.6015625 8.6171875 C-9.6015625 9.2771875 -9.6015625 9.9371875 -9.6015625 10.6171875 C-10.2615625 10.6171875 -10.9215625 10.6171875 -11.6015625 10.6171875 C-11.6015625 11.2771875 -11.6015625 11.9371875 -11.6015625 12.6171875 C-12.2615625 12.6171875 -12.9215625 12.6171875 -13.6015625 12.6171875 C-13.6015625 25.8171875 -13.6015625 39.0171875 -13.6015625 52.6171875 C-16.9015625 52.6171875 -20.2015625 52.6171875 -23.6015625 52.6171875 C-23.2715625 51.6271875 -22.9415625 50.6371875 -22.6015625 49.6171875 C-22.59038048 46.954217 -22.63338647 44.31285668 -22.70703125 41.65234375 C-22.73108566 39.1822162 -22.74455048 36.71214917 -22.75805664 34.24194336 C-22.77853655 32.54952859 -22.81853602 30.85722443 -22.87915039 29.16577148 C-23.16122666 20.78489902 -23.39527276 13.59693649 -17.54914856 7.06700134 C-12.14755194 1.73666386 -7.84535991 -0.67951936 0 0 Z " fill="#FFFFFF" transform="translate(193.6015625,93.3828125)"/>
<path d="M0 0 C2.64 0 5.28 0 8 0 C8 0.66 8 1.32 8 2 C8.66 2 9.32 2 10 2 C10 9.26 10 16.52 10 24 C12.64 24 15.28 24 18 24 C18 16.74 18 9.48 18 2 C18.66 2 19.32 2 20 2 C20 1.34 20 0.68 20 0 C22.64 0 25.28 0 28 0 C27.67 0.99 27.34 1.98 27 3 C26.88677175 4.4264314 26.82404524 5.8572249 26.79467773 7.2878418 C26.77473251 8.14850754 26.75478729 9.00917328 26.73423767 9.8959198 C26.70916893 11.28355278 26.70916893 11.28355278 26.68359375 12.69921875 C26.66281265 13.64940384 26.64203156 14.59958893 26.62062073 15.5785675 C26.55521948 18.61480456 26.49628396 21.65112831 26.4375 24.6875 C26.39430583 26.74545169 26.35069124 28.80339459 26.30664062 30.86132812 C26.19954769 35.90746316 26.09825354 40.95368543 26 46 C25.34 46 24.68 46 24 46 C24 47.98 24 49.96 24 52 C21.36 52 18.72 52 16 52 C16.33 51.01 16.66 50.02 17 49 C17.14715199 47.37432921 17.24721867 45.74413143 17.31640625 44.11328125 C17.35830078 43.17548828 17.40019531 42.23769531 17.44335938 41.27148438 C17.48267578 40.29501953 17.52199219 39.31855469 17.5625 38.3125 C17.60568359 37.32443359 17.64886719 36.33636719 17.69335938 35.31835938 C17.79941654 32.87904454 17.90147714 30.43962887 18 28 C15.36 28 12.72 28 10 28 C10.13883419 31.43782031 10.28727054 34.87516029 10.4375 38.3125 C10.47681641 39.28896484 10.51613281 40.26542969 10.55664062 41.27148438 C10.59853516 42.20927734 10.64042969 43.14707031 10.68359375 44.11328125 C10.72025146 44.97735596 10.75690918 45.84143066 10.79467773 46.73168945 C10.92747354 49.1647826 10.92747354 49.1647826 12 52 C9.36 52 6.72 52 4 52 C4 50.02 4 48.04 4 46 C3.34 46 2.68 46 2 46 C1.97494385 44.71311279 1.9498877 43.42622559 1.92407227 42.1003418 C1.82998428 37.33119546 1.72976687 32.56219429 1.62768555 27.79321289 C1.58434197 25.72814324 1.54266648 23.66303788 1.50268555 21.59790039 C1.44496917 18.63156365 1.38127849 15.66540655 1.31640625 12.69921875 C1.29969376 11.7741301 1.28298126 10.84904144 1.26576233 9.8959198 C1.24581711 9.03525406 1.22587189 8.17458832 1.20532227 7.2878418 C1.18977798 6.53061325 1.1742337 5.7733847 1.15821838 4.99320984 C1.06367677 2.79075185 1.06367677 2.79075185 0 0 Z " fill="#FFFFFF" transform="translate(20,94)"/>
<path d="M0 0 C3.3 0 6.6 0 10 0 C10 0.66 10 1.32 10 2 C11.98 2 13.96 2 16 2 C16 2.66 16 3.32 16 4 C16.66 4 17.32 4 18 4 C18 4.66 18 5.32 18 6 C18.66 6 19.32 6 20 6 C20 6.66 20 7.32 20 8 C20.66 8 21.32 8 22 8 C22 8.66 22 9.32 22 10 C23.32 10 24.64 10 26 10 C26.02505615 11.13018555 26.0501123 12.26037109 26.07592773 13.42480469 C26.17016956 17.62185817 26.27034926 21.81875263 26.37231445 26.015625 C26.41559986 27.83134234 26.45727944 29.64709871 26.49731445 31.46289062 C26.55517202 34.07433833 26.61882172 36.68559077 26.68359375 39.296875 C26.70030624 40.10743347 26.71701874 40.91799194 26.73423767 41.75311279 C26.82771396 45.31724723 27.04624584 48.56687935 28 52 C25.36 52 22.72 52 20 52 C20 50.02 20 48.04 20 46 C19.34 46 18.68 46 18 46 C17.9906543 45.08186523 17.98130859 44.16373047 17.97167969 43.21777344 C17.92760069 39.80294722 17.86596268 36.38936892 17.79248047 32.97509766 C17.76429912 31.49897804 17.74307034 30.02270831 17.72900391 28.54638672 C17.70753302 26.42076943 17.66086957 24.29695121 17.609375 22.171875 C17.58842773 20.8940918 17.56748047 19.61630859 17.54589844 18.29980469 C16.91831714 14.50624974 16.05081785 13.26848365 13 11 C12.34 11 11.68 11 11 11 C10.67 22.55 10.34 34.1 10 46 C9.34 46 8.68 46 8 46 C8 47.98 8 49.96 8 52 C5.36 52 2.72 52 0 52 C0.24349686 51.15037437 0.24349686 51.15037437 0.49191284 50.28358459 C1.01545387 47.93054297 1.12694325 45.87047595 1.12939453 43.46264648 C1.13254669 42.57169785 1.13569885 41.68074921 1.13894653 40.76280212 C1.1369223 39.80853836 1.13489807 38.8542746 1.1328125 37.87109375 C1.13376923 36.88504654 1.13472595 35.89899933 1.13571167 34.8830719 C1.13639151 32.80103491 1.13455091 30.71899579 1.13037109 28.63696289 C1.1250144 25.44607806 1.13032568 22.25533362 1.13671875 19.06445312 C1.13605805 17.04166636 1.13477704 15.01887967 1.1328125 12.99609375 C1.13483673 12.03980576 1.13686096 11.08351776 1.13894653 10.09825134 C1.13579437 9.21045486 1.13264221 8.32265839 1.12939453 7.40795898 C1.12859894 6.62726547 1.12780334 5.84657196 1.12698364 5.04222107 C1.07513423 2.79749674 1.07513423 2.79749674 0 0 Z " fill="#FFFFFF" transform="translate(84,94)"/>
<path d="M0 0 C2.875 -0.125 2.875 -0.125 6 0 C8 2 8 2 8.1953125 3.9453125 C8.13020833 5.96354167 8.06510417 7.98177083 8 10 C9.299375 9.814375 9.299375 9.814375 10.625 9.625 C14.75920797 10.08435644 16.13772715 11.27173282 18.875 14.265625 C20.55953389 16.86261474 20.42755682 19.00710226 20 22 C20.66 22 21.32 22 22 22 C22 24.64 22 27.28 22 30 C21.34 30 20.68 30 20 30 C20.12375 30.86625 20.2475 31.7325 20.375 32.625 C19.91564356 36.75920797 18.72826718 38.13772715 15.734375 40.875 C13.13738526 42.55953389 10.99289774 42.42755682 8 42 C8.45822468 45.46941546 8.89131683 48.67395049 10 52 C7.125 52.125 7.125 52.125 4 52 C2 50 2 50 1.8046875 48.0546875 C1.86979167 46.03645833 1.93489583 44.01822917 2 42 C1.13375 42.12375 0.2675 42.2475 -0.625 42.375 C-4.75920797 41.91564356 -6.13772715 40.72826718 -8.875 37.734375 C-10.55953389 35.13738526 -10.42755682 32.99289774 -10 30 C-10.66 30 -11.32 30 -12 30 C-12 27.36 -12 24.72 -12 22 C-11.34 22 -10.68 22 -10 22 C-10.12375 21.13375 -10.2475 20.2675 -10.375 19.375 C-9.91564356 15.24079203 -8.72826718 13.86227285 -5.734375 11.125 C-3.13738526 9.44046611 -0.99289774 9.57244318 2 10 C1.54177532 6.53058454 1.10868317 3.32604951 0 0 Z M-4 16 C-4 17.98 -4 19.96 -4 22 C-4.66 22 -5.32 22 -6 22 C-6 23.98 -6 25.96 -6 28 C-5.34 28 -4.68 28 -4 28 C-4 30.64 -4 33.28 -4 36 C-2.02 36 -0.04 36 2 36 C2 29.4 2 22.8 2 16 C0.02 16 -1.96 16 -4 16 Z M8 16 C8 22.6 8 29.2 8 36 C9.98 36 11.96 36 14 36 C14 34.02 14 32.04 14 30 C14.66 30 15.32 30 16 30 C16 28.02 16 26.04 16 24 C15.34 24 14.68 24 14 24 C14 21.36 14 18.72 14 16 C12.02 16 10.04 16 8 16 Z " fill="#FFFFFF" transform="translate(144,94)"/>
<path d="M0 0 C2.64 0 5.28 0 8 0 C8 0.66 8 1.32 8 2 C8.66 2 9.32 2 10 2 C10 8.6 10 15.2 10 22 C10.66 22 11.32 22 12 22 C12 23.32 12 24.64 12 26 C13.32 26 14.64 26 16 26 C16 24.68 16 23.36 16 22 C16.66 22 17.32 22 18 22 C18 15.4 18 8.8 18 2 C18.66 2 19.32 2 20 2 C20 1.34 20 0.68 20 0 C22.64 0 25.28 0 28 0 C27.67 0.99 27.34 1.98 27 3 C26.85596652 4.33363703 26.75409577 5.67218046 26.68359375 7.01171875 C26.64169922 7.76904297 26.59980469 8.52636719 26.55664062 9.30664062 C26.51732422 10.09232422 26.47800781 10.87800781 26.4375 11.6875 C26.39431641 12.48478516 26.35113281 13.28207031 26.30664062 14.10351562 C26.20072632 16.06881447 26.09987449 18.03438496 26 20 C25.34 20 24.68 20 24 20 C24 21.32 24 22.64 24 24 C23.34 24 22.68 24 22 24 C22 24.66 22 25.32 22 26 C21.34 26 20.68 26 20 26 C20 26.66 20 27.32 20 28 C19.34 28 18.68 28 18 28 C18 33.94 18 39.88 18 46 C17.34 46 16.68 46 16 46 C16 47.98 16 49.96 16 52 C14.68 52 13.36 52 12 52 C12 50.02 12 48.04 12 46 C11.34 46 10.68 46 10 46 C10 40.06 10 34.12 10 28 C9.34 28 8.68 28 8 28 C8 27.34 8 26.68 8 26 C7.34 26 6.68 26 6 26 C6 25.34 6 24.68 6 24 C5.34 24 4.68 24 4 24 C4 22.68 4 21.36 4 20 C3.34 20 2.68 20 2 20 C1.93941406 18.80761719 1.87882812 17.61523438 1.81640625 16.38671875 C1.73198851 14.82030075 1.64734113 13.25389512 1.5625 11.6875 C1.52318359 10.90181641 1.48386719 10.11613281 1.44335938 9.30664062 C1.40146484 8.54931641 1.35957031 7.79199219 1.31640625 7.01171875 C1.26141968 5.96697388 1.26141968 5.96697388 1.20532227 4.90112305 C1.04418847 2.7783428 1.04418847 2.7783428 0 0 Z " fill="#FFFFFF" transform="translate(52,94)"/>
<path d="M0 0 C2.01822917 0.06510417 4.03645833 0.13020833 6.0546875 0.1953125 C5.7246875 1.1853125 5.3946875 2.1753125 5.0546875 3.1953125 C4.92693013 5.38192215 4.85275742 7.57182532 4.80859375 9.76171875 C4.77572266 11.05142578 4.74285156 12.34113281 4.70898438 13.66992188 C4.66145496 15.7195969 4.61696963 17.76923768 4.57788086 19.8190918 C4.53825485 21.80015498 4.48611024 23.78095537 4.43359375 25.76171875 C4.4085376 26.94709229 4.38348145 28.13246582 4.35766602 29.35375977 C4.0546875 32.1953125 4.0546875 32.1953125 2.0546875 34.1953125 C-0.63370635 34.46523156 -3.23673186 34.28268607 -5.9453125 34.1953125 C-5.6153125 33.2053125 -5.2853125 32.2153125 -4.9453125 31.1953125 C-4.81755513 29.00870285 -4.74338242 26.81879968 -4.69921875 24.62890625 C-4.66634766 23.33919922 -4.63347656 22.04949219 -4.59960938 20.72070312 C-4.55207996 18.6710281 -4.50759463 16.62138732 -4.46850586 14.5715332 C-4.42887985 12.59047002 -4.37673524 10.60966963 -4.32421875 8.62890625 C-4.2991626 7.44353271 -4.27410645 6.25815918 -4.24829102 5.03686523 C-3.90401885 1.80803064 -3.42438069 0.34381332 0 0 Z " fill="#FFFFFF" transform="translate(121.9453125,111.8046875)"/>
<path d="M0 0 C3.72206393 1.34627844 5.01947413 2.61005343 6.9375 6.0625 C7.01854732 10.03381876 6.4063579 11.54005834 3.75 14.5 C0.9375 16.0625 0.9375 16.0625 -2.125 16.125 C-5.84706393 14.77872156 -7.14447413 13.51494657 -9.0625 10.0625 C-9.14354732 6.09118124 -8.5313579 4.58494166 -5.875 1.625 C-3.0625 0.0625 -3.0625 0.0625 0 0 Z " fill="#FFFFFF" transform="translate(123.0625,92.9375)"/>
<path d="M0 0 C1.32 0.66 2.64 1.32 4 2 C4 3.32 4 4.64 4 6 C2.02 6.99 2.02 6.99 0 8 C-0.99 7.01 -1.98 6.02 -3 5 C-1.125 1.125 -1.125 1.125 0 0 Z " fill="#FFFFFF" transform="translate(184,117)"/>
<path d="M0 0 C0.66 0 1.32 0 2 0 C2 0.66 2 1.32 2 2 C3.32 2 4.64 2 6 2 C6 1.34 6 0.68 6 0 C6.66 0 7.32 0 8 0 C8 1.32 8 2.64 8 4 C7.34 4 6.68 4 6 4 C6 4.66 6 5.32 6 6 C4.68 6 3.36 6 2 6 C2 5.34 2 4.68 2 4 C1.34 4 0.68 4 0 4 C0 2.68 0 1.36 0 0 Z " fill="#FFFFFF" transform="translate(214,90)"/>
</svg>
